<?xml version="1.0" encoding="UTF-8"?>
<!DOCTYPE svg PUBLIC "-//W3C//DTD SVG 1.1//EN" "http://www.w3.org/Graphics/SVG/1.1/DTD/svg11.dtd">
<!-- Creator: CorelDRAW -->
<svg xmlns="http://www.w3.org/2000/svg" xml:space="preserve" width="210mm" height="297mm" style="shape-rendering:geometricPrecision; text-rendering:geometricPrecision; image-rendering:optimizeQuality; fill-rule:evenodd; clip-rule:evenodd"
viewBox="0 0 210 297">
 <defs>
  <style type="text/css">
   <![CDATA[
    .str2 {stroke:#322073;stroke-width:0.1764}
    .str4 {stroke:#0080BF;stroke-width:0.7056}
    .str5 {stroke:#2B2828;stroke-width:0.7056}
    .str3 {stroke:#606365;stroke-width:0.7056}
    .str1 {stroke:#0080BF;stroke-width:1.0583}
    .str0 {stroke:#2B2828;stroke-width:0.3528;stroke-dasharray:0 1}
    .fil0 {fill:none}
    .fil4 {fill:#0080BF}
    .fil3 {fill:#0091CF}
    .fil1 {fill:#62B8E0}
    .fil5 {fill:#C2C2C6}
    .fil2 {fill:#2B2828;fill-rule:nonzero}
   ]]>
  </style>
 </defs>
 <g id="Layer_x0020_1">
  <metadata id="CorelCorpID_0Corel-Layer"/>
  <circle class="fil0 str0" cx="100" cy="97" r="35"/>
  <rect class="fil1 str1" x="24" y="91" width="36" height="12"/>
  <g id="_175510336">
   <path id="_175486096" class="fil2" d="M30.8577 97.4628l0.1227 -0.0204c0.1531,-0.0262 0.2975,-0.0597 0.4348,-0.1005 0.1358,-0.0408 0.2556,-0.1035 0.3567,-0.1851 0.1025,-0.0831 0.1834,-0.1938 0.2441,-0.3323 0.0606,-0.137 0.0909,-0.3177 0.0909,-0.5392 0,-0.1647 -0.0259,-0.3075 -0.0765,-0.427 -0.0505,-0.1195 -0.1213,-0.2171 -0.2122,-0.2943 -0.0896,-0.0773 -0.1993,-0.1341 -0.3294,-0.1706 -0.13,-0.0378 -0.2729,-0.0568 -0.4275,-0.0568 -0.0823,0 -0.1516,0.0029 -0.2108,0.0073 -0.0593,0.0044 -0.1329,0.0102 -0.221,0.0189l0 4.0732 -0.5878 0 0 -4.35c0.1776,-0.0146 0.374,-0.0263 0.5878,-0.035 0.2151,-0.0088 0.4247,-0.0131 0.6311,-0.0131 0.2513,0 0.4694,0.0291 0.6558,0.0859 0.1863,0.0569 0.3393,0.137 0.4606,0.242 0.1214,0.1034 0.2124,0.2302 0.2715,0.3789 0.0593,0.1501 0.0882,0.3191 0.0882,0.5056 0,0.1968 -0.0347,0.3804 -0.1055,0.5509 -0.0708,0.172 -0.1805,0.3192 -0.3278,0.4445 -0.1488,0.1253 -0.3365,0.2244 -0.5632,0.2973 -0.2268,0.0714 -0.4969,0.1078 -0.8103,0.1078l-0.0376 0 -0.0346 -0.188z"/>
   <path id="_175486096" class="fil2" d="M34.022 96.5156l0 2.0329c0,0.067 0.0059,0.1355 0.0174,0.2026 0.0116,0.067 0.0347,0.1268 0.0694,0.1792 0.036,0.0525 0.0866,0.0962 0.1501,0.1297 0.065,0.035 0.1531,0.051 0.2629,0.051 0.0708,0 0.1459,-0.0087 0.2268,-0.0248 0.0809,-0.0174 0.1617,-0.0393 0.2426,-0.0641 0.0823,-0.0262 0.1617,-0.0554 0.2368,-0.0903 0.0766,-0.0335 0.1459,-0.0685 0.208,-0.102l0 -2.3142 0.5705 0 0 2.9204 -0.4781 0 -0.0837 -0.341c-0.065,0.0364 -0.1401,0.0787 -0.2268,0.1253 -0.0866,0.0467 -0.179,0.0918 -0.2787,0.1326 -0.1011,0.0408 -0.2037,0.0758 -0.3119,0.105 -0.107,0.0276 -0.2153,0.0422 -0.325,0.0422 -0.1243,0 -0.2383,-0.0175 -0.3438,-0.0539 -0.1039,-0.035 -0.1935,-0.0889 -0.2686,-0.1618 -0.0737,-0.0728 -0.1329,-0.1617 -0.1748,-0.2696 -0.0418,-0.1063 -0.0635,-0.2317 -0.0635,-0.3774l0 -2.1218 0.5704 0z"/>
   <path id="_175486096" class="fil2" d="M37.0391 94.6459l0.5719 -0.1458 0 1.7983c0,0.051 -0.0014,0.1035 -0.0029,0.1574 -0.0014,0.0539 -0.0014,0.1035 -0.0014,0.1501 -0.0029,0.051 -0.0043,0.1035 -0.0043,0.1574 0.0592,-0.0422 0.1199,-0.0831 0.1819,-0.1195 0.0621,-0.0364 0.1272,-0.0699 0.195,-0.0976 0.0679,-0.0292 0.1387,-0.0525 0.2152,-0.0685 0.0765,-0.0175 0.1604,-0.0263 0.2498,-0.0263 0.1575,0 0.3105,0.0263 0.4564,0.0773 0.1474,0.051 0.2773,0.1341 0.39,0.2477 0.1127,0.1137 0.2037,0.2623 0.2715,0.446 0.0664,0.1836 0.1011,0.4065 0.1011,0.6674 0,0.2536 -0.0332,0.4795 -0.0997,0.6776 -0.0664,0.1982 -0.1617,0.3644 -0.2874,0.5014 -0.1256,0.1369 -0.2787,0.2419 -0.4578,0.3133 -0.1791,0.0728 -0.3813,0.1093 -0.6066,0.1093 -0.1777,0 -0.3654,-0.0117 -0.5647,-0.0365 -0.1993,-0.0233 -0.4014,-0.0655 -0.608,-0.1253l0 -4.6837zm2.0191 3.2789c0,-0.1938 -0.0188,-0.3585 -0.0578,-0.4955 -0.0375,-0.137 -0.0924,-0.2492 -0.1617,-0.3366 -0.0709,-0.0889 -0.156,-0.1531 -0.2542,-0.1924 -0.0997,-0.0408 -0.208,-0.0598 -0.3265,-0.0598 -0.1184,0 -0.2296,0.0117 -0.3364,0.0365 -0.1055,0.0233 -0.2094,0.0554 -0.3106,0.0962l0 2.1553c0.0896,0.0146 0.1762,0.0248 0.26,0.0321 0.0838,0.0073 0.1733,0.0102 0.2686,0.0102 0.1358,0 0.2599,-0.0102 0.3741,-0.0335 0.1155,-0.0234 0.2036,-0.0598 0.2657,-0.1108 0.0303,-0.0291 0.0622,-0.0729 0.0939,-0.1326 0.0332,-0.0598 0.0635,-0.1355 0.0909,-0.2288 0.029,-0.0918 0.0521,-0.2011 0.0679,-0.3235 0.0174,-0.1239 0.0261,-0.2638 0.0261,-0.4168z"/>
   <polygon id="_175486096" class="fil2" points="40.5125,99.436 40.5125,94.6459 41.0844,94.5001 41.0844,99.436 "/>
   <path id="_175486096" class="fil2" d="M42.1157 99.436l0 -2.9204 0.5719 0 0 2.9204 -0.5719 0zm0.2802 -4.4185l0.3885 0.3876 -0.3885 0.3891 -0.3856 -0.3891 0.3856 -0.3876z"/>
   <path id="_175486096" class="fil2" d="M45.5097 98.5179c0,0.1457 -0.0246,0.2696 -0.0752,0.3731 -0.049,0.1049 -0.114,0.1967 -0.1964,0.2754 -0.0447,0.0437 -0.0938,0.0845 -0.1473,0.1239 -0.0534,0.0408 -0.114,0.0757 -0.1819,0.1049 -0.0679,0.0306 -0.1445,0.0539 -0.2296,0.0714 -0.0839,0.016 -0.1791,0.0248 -0.2832,0.0248 -0.192,0 -0.3668,-0.0219 -0.5242,-0.0641 -0.1574,-0.0423 -0.3062,-0.1108 -0.4448,-0.2041l0.1689 -0.3978c0.0621,0.0393 0.1286,0.0787 0.1993,0.118 0.0708,0.0379 0.1444,0.0729 0.2224,0.1064 0.078,0.0321 0.1575,0.0583 0.2384,0.0787 0.0822,0.0204 0.1675,0.0306 0.2542,0.0306 0.0967,0 0.1776,-0.0073 0.2455,-0.0218 0.0679,-0.0146 0.1256,-0.0379 0.1733,-0.0729 0.0462,-0.0306 0.0823,-0.0758 0.1097,-0.1341 0.029,-0.0583 0.0433,-0.1428 0.0433,-0.2536 0,-0.1005 -0.0389,-0.1821 -0.114,-0.2433 -0.0766,-0.0627 -0.1719,-0.1181 -0.286,-0.1632 -0.1141,-0.0452 -0.2383,-0.0904 -0.3726,-0.137 -0.1343,-0.0452 -0.2586,-0.102 -0.3726,-0.1705 -0.1141,-0.0685 -0.2094,-0.1545 -0.2846,-0.258 -0.0765,-0.1034 -0.1155,-0.239 -0.1155,-0.4036 0,-0.1225 0.026,-0.2274 0.0766,-0.3134 0.0505,-0.0874 0.1141,-0.1676 0.1906,-0.2419 0.0953,-0.0903 0.208,-0.1632 0.3337,-0.2157 0.127,-0.0524 0.2671,-0.0787 0.4202,-0.0787 0.1199,0 0.2484,0.0088 0.3827,0.0234 0.1329,0.016 0.2614,0.0335 0.3827,0.0539l-0.0852 0.4226c-0.0563,-0.0146 -0.1184,-0.0291 -0.1863,-0.0423 -0.0678,-0.0145 -0.1372,-0.0276 -0.2094,-0.0393 -0.0722,-0.0117 -0.14,-0.0204 -0.2065,-0.0277 -0.0664,-0.0073 -0.1256,-0.0102 -0.1762,-0.0102 -0.1126,0 -0.2007,0.0058 -0.2629,0.0189 -0.0606,0.0132 -0.1097,0.0321 -0.143,0.0583 -0.0317,0.0219 -0.0548,0.054 -0.0693,0.0962 -0.0158,0.0408 -0.0245,0.0947 -0.0245,0.1632 0,0.0919 0.039,0.1662 0.1155,0.223 0.0751,0.0568 0.1719,0.1078 0.2874,0.153 0.1156,0.0452 0.2398,0.0918 0.3727,0.1385 0.1314,0.0481 0.2555,0.1064 0.3711,0.1748 0.1156,0.07 0.2123,0.1574 0.2889,0.2609 0.0751,0.1035 0.1141,0.2375 0.1141,0.3993z"/>
   <path id="_175486096" class="fil2" d="M46.8498 96.5243c0,0.0394 -0.0014,0.0947 -0.0043,0.1661 -0.0029,0.0715 -0.0043,0.1268 -0.0043,0.1662 0.065,-0.0365 0.1401,-0.0787 0.2267,-0.1253 0.0852,-0.0467 0.1791,-0.0904 0.2788,-0.1327 0.1011,-0.0408 0.205,-0.0757 0.3134,-0.1049 0.1083,-0.0277 0.218,-0.0423 0.3278,-0.0423 0.1242,0 0.2383,0.0175 0.3408,0.054 0.1026,0.0349 0.1921,0.0889 0.2658,0.1617 0.075,0.0729 0.1343,0.1632 0.1762,0.2711 0.0418,0.1078 0.0635,0.2346 0.0635,0.3803l0 2.1175 -0.5719 0 0 -2.0286c0,-0.067 -0.0044,-0.1355 -0.0158,-0.2025 -0.0116,-0.0671 -0.0347,-0.1268 -0.0709,-0.1807 -0.0346,-0.054 -0.0851,-0.0991 -0.1502,-0.1326 -0.065,-0.035 -0.1516,-0.0511 -0.2614,-0.0511 -0.0679,0 -0.1415,0.0088 -0.2224,0.0248 -0.0808,0.0175 -0.1617,0.0394 -0.2441,0.0641 -0.0808,0.0263 -0.1603,0.0554 -0.2382,0.0904 -0.078,0.0335 -0.1474,0.0685 -0.2095,0.102l0 2.3142 -0.5719 0 0 -4.7901 0.5719 -0.1458 0 2.0242z"/>
   <path id="_175486096" class="fil2" d="M50.9761 96.4514c0.1257,0 0.2499,0.019 0.3712,0.0554 0.1213,0.0379 0.2325,0.0991 0.3322,0.1866 0.1011,0.0859 0.1877,0.2011 0.2628,0.3453 0.0751,0.1443 0.13,0.3221 0.1675,0.5363l0 0.0335c-0.026,0.0321 -0.0607,0.0598 -0.104,0.086 -0.0433,0.0248 -0.101,0.0481 -0.1718,0.0685 -0.0708,0.019 -0.1574,0.0365 -0.26,0.0525 -0.1025,0.016 -0.2267,0.0277 -0.3697,0.0364l-0.9402 0.0641 0 0.1837c0,0.3439 0.0606,0.5945 0.1819,0.7519 0.1213,0.156 0.3048,0.2346 0.5504,0.2346 0.101,0 0.2065,-0.0102 0.3148,-0.0306 0.1097,-0.0189 0.2123,-0.0437 0.3119,-0.0728 0.0982,-0.0277 0.1878,-0.0569 0.2687,-0.0875 0.0794,-0.0291 0.143,-0.0553 0.1877,-0.0787l0.0722 0.1662c-0.0823,0.0554 -0.1733,0.1122 -0.2744,0.1719 -0.1025,0.0598 -0.2108,0.1137 -0.3292,0.1633 -0.1171,0.051 -0.2399,0.0918 -0.3669,0.1238 -0.1285,0.0335 -0.2614,0.0496 -0.3957,0.0496 -0.1618,0 -0.3105,-0.0248 -0.4463,-0.0773 -0.1372,-0.051 -0.2571,-0.1326 -0.3582,-0.2477 -0.1011,-0.1137 -0.1805,-0.2623 -0.2383,-0.4459 -0.0592,-0.1837 -0.0881,-0.4066 -0.0881,-0.6675 0,-0.2929 0.0347,-0.5421 0.1026,-0.7476 0.0678,-0.2055 0.1603,-0.3701 0.2787,-0.4955 0.1185,-0.1253 0.2585,-0.2156 0.4189,-0.2725 0.1602,-0.0568 0.335,-0.086 0.5213,-0.086zm-0.4795 0.4227c-0.0303,0.0233 -0.0592,0.0597 -0.0866,0.1093 -0.026,0.0495 -0.0491,0.1093 -0.0693,0.1792 -0.0202,0.07 -0.0362,0.1457 -0.0492,0.2288 -0.0116,0.0816 -0.0187,0.1661 -0.0187,0.2521l1.2103 -0.0524c-0.0145,-0.0962 -0.0347,-0.1939 -0.0607,-0.2915 -0.0274,-0.0991 -0.0635,-0.1865 -0.1112,-0.2623 -0.0463,-0.0773 -0.104,-0.1399 -0.1748,-0.188 -0.0708,-0.0496 -0.1574,-0.0729 -0.2585,-0.0729 -0.0679,0 -0.1344,0.0073 -0.2008,0.0204 -0.0664,0.0146 -0.1256,0.0408 -0.1805,0.0773z"/>
   <path id="_175486096" class="fil2" d="M54.4163 96.9761c-0.065,-0.0044 -0.1386,-0.0117 -0.221,-0.019 -0.0808,-0.0073 -0.1588,-0.0102 -0.2325,-0.0102 -0.0535,0 -0.0997,0.0059 -0.1372,0.0175 -0.0376,0.0117 -0.0752,0.0292 -0.1097,0.0525 -0.0362,0.0248 -0.0708,0.0524 -0.1041,0.086 -0.0332,0.032 -0.0736,0.0699 -0.1184,0.1136l0 2.2195 -0.5719 0 0 -2.9204 0.478 0 0.0809 0.4576 0.0044 0c0.0318,-0.0379 0.0635,-0.0787 0.0967,-0.1225 0.0347,-0.0437 0.0693,-0.0859 0.104,-0.1253 0.0361,-0.0408 0.0737,-0.0772 0.1126,-0.1122 0.0391,-0.0335 0.0824,-0.0612 0.1272,-0.0801 0.0751,-0.035 0.1617,-0.0569 0.257,-0.0671 0.0968,-0.0087 0.2022,-0.0146 0.3178,-0.0146l-0.0838 0.5247z"/>
  </g>
  <rect class="fil1 str1" x="152" y="91" width="36" height="12"/>
  <rect class="fil1 str1" x="152" y="61" width="36" height="12"/>
  <rect class="fil1 str1" x="152" y="121" width="36" height="12"/>
  <g id="_175486768">
   <path id="_175488424" class="fil2" d="M156.675 128.168c0,0.1647 -0.0332,0.3265 -0.0982,0.4839 -0.065,0.1588 -0.1603,0.3002 -0.2859,0.4255 -0.1243,0.1253 -0.2788,0.2259 -0.4608,0.3031 -0.1819,0.0773 -0.39,0.1151 -0.6239,0.1151 -0.2455,0 -0.465,-0.0291 -0.6586,-0.0859 -0.1921,-0.0569 -0.374,-0.1326 -0.543,-0.2303l0.2108 -0.5115c0.0622,0.0423 0.1373,0.0874 0.2254,0.1341 0.0866,0.0466 0.1804,0.0903 0.2787,0.1297 0.0982,0.0408 0.2007,0.0743 0.3076,0.1005 0.1054,0.0277 0.208,0.0408 0.3062,0.0408 0.1358,0 0.2513,-0.0131 0.3496,-0.0379 0.0967,-0.0262 0.1761,-0.0568 0.2382,-0.0947 0.0347,-0.0204 0.0664,-0.0437 0.0982,-0.0728 0.0303,-0.0277 0.0578,-0.0671 0.0824,-0.1152 0.0231,-0.0481 0.0418,-0.1078 0.0563,-0.1807 0.0144,-0.0728 0.0217,-0.1603 0.0217,-0.2623 0,-0.1341 -0.029,-0.2477 -0.0868,-0.3395 -0.0577,-0.0933 -0.1342,-0.172 -0.231,-0.2376 -0.0953,-0.0656 -0.2036,-0.1224 -0.3249,-0.1734 -0.1213,-0.0496 -0.2456,-0.1006 -0.3713,-0.153 -0.1255,-0.0525 -0.2483,-0.1108 -0.3696,-0.1749 -0.1213,-0.0641 -0.2297,-0.1443 -0.3265,-0.239 -0.0953,-0.0962 -0.1718,-0.2098 -0.2296,-0.3439 -0.0578,-0.1341 -0.0866,-0.2973 -0.0866,-0.4911 0,-0.1341 0.0303,-0.2682 0.0923,-0.4037 0.0622,-0.1355 0.1518,-0.2579 0.2687,-0.3672 0.117,-0.1093 0.2615,-0.1997 0.4318,-0.2682 0.1705,-0.0699 0.364,-0.1049 0.5821,-0.1049 0.1748,0 0.3379,0.0102 0.491,0.0291 0.1516,0.0204 0.3033,0.0467 0.4564,0.0773l-0.1314 0.5173c-0.1604,-0.0568 -0.3279,-0.1064 -0.5041,-0.1486 -0.1747,-0.0408 -0.3379,-0.0612 -0.4895,-0.0612 -0.1185,0 -0.2239,0.0087 -0.3135,0.0262 -0.091,0.016 -0.1603,0.0423 -0.2079,0.0758 -0.0506,0.0408 -0.0939,0.0976 -0.1314,0.1734 -0.0362,0.0758 -0.0549,0.1894 -0.0549,0.3439 0,0.1224 0.0288,0.2259 0.0866,0.309 0.0577,0.0845 0.1357,0.1574 0.2311,0.22 0.0967,0.0627 0.205,0.1195 0.3264,0.1691 0.1213,0.0495 0.2455,0.1005 0.3726,0.153 0.1256,0.0524 0.2498,0.1122 0.3712,0.1792 0.1213,0.0671 0.231,0.1487 0.3264,0.2463 0.0953,0.0962 0.1733,0.2128 0.2311,0.3498 0.0577,0.137 0.0866,0.3016 0.0866,0.4954z"/>
   <path id="_175488424" class="fil2" d="M158.024 126.516l0 2.0329c0,0.067 0.0059,0.1355 0.0174,0.2026 0.0116,0.067 0.0347,0.1268 0.0694,0.1792 0.036,0.0525 0.0866,0.0962 0.1501,0.1297 0.065,0.035 0.1531,0.051 0.2629,0.051 0.0708,0 0.1459,-0.0087 0.2268,-0.0248 0.0809,-0.0174 0.1617,-0.0393 0.2426,-0.0641 0.0823,-0.0262 0.1617,-0.0554 0.2368,-0.0903 0.0766,-0.0335 0.1459,-0.0685 0.208,-0.102l0 -2.3142 0.5705 0 0 2.9204 -0.4781 0 -0.0837 -0.341c-0.065,0.0364 -0.1401,0.0787 -0.2268,0.1253 -0.0866,0.0467 -0.179,0.0918 -0.2787,0.1326 -0.1011,0.0408 -0.2037,0.0758 -0.3119,0.105 -0.107,0.0276 -0.2153,0.0422 -0.325,0.0422 -0.1243,0 -0.2383,-0.0175 -0.3438,-0.0539 -0.1039,-0.035 -0.1935,-0.0889 -0.2686,-0.1618 -0.0737,-0.0728 -0.1329,-0.1617 -0.1748,-0.2696 -0.0418,-0.1063 -0.0635,-0.2317 -0.0635,-0.3774l0 -2.1218 0.5704 0z"/>
   <path id="_175488424" class="fil2" d="M161.041 124.646l0.5719 -0.1458 0 1.7983c0,0.051 -0.0014,0.1035 -0.0029,0.1574 -0.0014,0.0539 -0.0014,0.1035 -0.0014,0.1501 -0.0029,0.051 -0.0043,0.1035 -0.0043,0.1574 0.0592,-0.0422 0.1199,-0.0831 0.1819,-0.1195 0.0621,-0.0364 0.1272,-0.0699 0.195,-0.0976 0.0679,-0.0292 0.1387,-0.0525 0.2152,-0.0685 0.0765,-0.0175 0.1604,-0.0263 0.2498,-0.0263 0.1575,0 0.3105,0.0263 0.4564,0.0773 0.1474,0.051 0.2773,0.1341 0.39,0.2477 0.1127,0.1137 0.2037,0.2623 0.2715,0.446 0.0664,0.1836 0.1011,0.4065 0.1011,0.6674 0,0.2536 -0.0332,0.4795 -0.0997,0.6776 -0.0664,0.1982 -0.1617,0.3644 -0.2874,0.5014 -0.1256,0.1369 -0.2787,0.2419 -0.4578,0.3133 -0.1791,0.0728 -0.3813,0.1093 -0.6066,0.1093 -0.1777,0 -0.3654,-0.0117 -0.5647,-0.0365 -0.1993,-0.0233 -0.4014,-0.0655 -0.608,-0.1253l0 -4.6837zm2.0191 3.2789c0,-0.1938 -0.0188,-0.3585 -0.0578,-0.4955 -0.0375,-0.137 -0.0924,-0.2492 -0.1617,-0.3366 -0.0709,-0.0889 -0.156,-0.1531 -0.2542,-0.1924 -0.0997,-0.0408 -0.208,-0.0598 -0.3265,-0.0598 -0.1184,0 -0.2296,0.0117 -0.3364,0.0365 -0.1055,0.0233 -0.2094,0.0554 -0.3106,0.0962l0 2.1553c0.0896,0.0146 0.1762,0.0248 0.26,0.0321 0.0838,0.0073 0.1733,0.0102 0.2686,0.0102 0.1358,0 0.2599,-0.0102 0.3741,-0.0335 0.1155,-0.0234 0.2036,-0.0598 0.2657,-0.1108 0.0303,-0.0291 0.0622,-0.0729 0.0939,-0.1326 0.0332,-0.0598 0.0635,-0.1355 0.0909,-0.2288 0.029,-0.0918 0.0521,-0.2011 0.0679,-0.3235 0.0174,-0.1239 0.0261,-0.2638 0.0261,-0.4168z"/>
   <path id="_175488424" class="fil2" d="M166.305 128.518c0,0.1457 -0.0246,0.2696 -0.0752,0.3731 -0.049,0.1049 -0.114,0.1967 -0.1964,0.2754 -0.0447,0.0437 -0.0938,0.0845 -0.1473,0.1239 -0.0534,0.0408 -0.114,0.0757 -0.1819,0.1049 -0.0679,0.0306 -0.1445,0.0539 -0.2296,0.0714 -0.0839,0.016 -0.1791,0.0248 -0.2832,0.0248 -0.192,0 -0.3668,-0.0219 -0.5242,-0.0641 -0.1574,-0.0423 -0.3062,-0.1108 -0.4448,-0.2041l0.1689 -0.3978c0.0621,0.0393 0.1286,0.0787 0.1993,0.118 0.0708,0.0379 0.1444,0.0729 0.2224,0.1064 0.078,0.0321 0.1575,0.0583 0.2384,0.0787 0.0822,0.0204 0.1675,0.0306 0.2542,0.0306 0.0967,0 0.1776,-0.0073 0.2455,-0.0218 0.0679,-0.0146 0.1256,-0.0379 0.1733,-0.0729 0.0462,-0.0306 0.0823,-0.0758 0.1097,-0.1341 0.029,-0.0583 0.0433,-0.1428 0.0433,-0.2536 0,-0.1005 -0.0389,-0.1821 -0.114,-0.2433 -0.0766,-0.0627 -0.1719,-0.1181 -0.286,-0.1632 -0.1141,-0.0452 -0.2383,-0.0904 -0.3726,-0.137 -0.1343,-0.0452 -0.2586,-0.102 -0.3726,-0.1705 -0.1141,-0.0685 -0.2094,-0.1545 -0.2846,-0.258 -0.0765,-0.1034 -0.1155,-0.239 -0.1155,-0.4036 0,-0.1225 0.026,-0.2274 0.0766,-0.3134 0.0505,-0.0874 0.1141,-0.1676 0.1906,-0.2419 0.0953,-0.0903 0.208,-0.1632 0.3337,-0.2157 0.127,-0.0524 0.2671,-0.0787 0.4202,-0.0787 0.1199,0 0.2484,0.0088 0.3827,0.0234 0.1329,0.016 0.2614,0.0335 0.3827,0.0539l-0.0852 0.4226c-0.0563,-0.0146 -0.1184,-0.0291 -0.1863,-0.0423 -0.0678,-0.0145 -0.1372,-0.0276 -0.2094,-0.0393 -0.0722,-0.0117 -0.14,-0.0204 -0.2065,-0.0277 -0.0664,-0.0073 -0.1256,-0.0102 -0.1762,-0.0102 -0.1126,0 -0.2007,0.0058 -0.2629,0.0189 -0.0606,0.0132 -0.1097,0.0321 -0.143,0.0583 -0.0317,0.0219 -0.0548,0.054 -0.0693,0.0962 -0.0158,0.0408 -0.0245,0.0947 -0.0245,0.1632 0,0.0919 0.039,0.1662 0.1155,0.223 0.0751,0.0568 0.1719,0.1078 0.2874,0.153 0.1156,0.0452 0.2398,0.0918 0.3727,0.1385 0.1314,0.0481 0.2555,0.1064 0.3711,0.1748 0.1156,0.07 0.2123,0.1574 0.2889,0.2609 0.0751,0.1035 0.1141,0.2375 0.1141,0.3993z"/>
   <path id="_175488424" class="fil2" d="M168.978 127.015c-0.0534,-0.0262 -0.1169,-0.0524 -0.1906,-0.0816 -0.0737,-0.0277 -0.1487,-0.0524 -0.2267,-0.0743 -0.078,-0.0219 -0.1531,-0.0394 -0.2282,-0.0539 -0.0752,-0.0131 -0.1387,-0.0204 -0.1921,-0.0204 -0.0679,0 -0.1358,0.0102 -0.2008,0.0335 -0.0664,0.0233 -0.1328,0.0627 -0.1978,0.1195 -0.0303,0.0291 -0.0607,0.067 -0.091,0.1151 -0.0289,0.0481 -0.0549,0.1151 -0.078,0.1982 -0.0217,0.0845 -0.0404,0.1895 -0.052,0.3148 -0.013,0.1253 -0.0202,0.2769 -0.0202,0.4561 0,0.2055 0.0158,0.376 0.0476,0.513 0.0304,0.137 0.078,0.2448 0.1416,0.3264 0.0635,0.0816 0.1415,0.1385 0.2368,0.1734 0.0939,0.0336 0.2037,0.051 0.3279,0.051 0.1401,0 0.2874,-0.0174 0.4405,-0.051 0.1516,-0.0349 0.2903,-0.0801 0.4144,-0.1369l0.0752 0.1748c-0.0722,0.054 -0.1531,0.1064 -0.2383,0.1574 -0.0867,0.0525 -0.1777,0.0962 -0.273,0.1355 -0.0967,0.0379 -0.1963,0.0685 -0.3004,0.0919 -0.104,0.0218 -0.2138,0.0335 -0.3264,0.0335 -0.1603,0 -0.3119,-0.0248 -0.4521,-0.0773 -0.1415,-0.051 -0.2642,-0.1326 -0.3682,-0.2477 -0.104,-0.1137 -0.1864,-0.2623 -0.2455,-0.4459 -0.0593,-0.1837 -0.0896,-0.4066 -0.0896,-0.6675 0,-0.2506 0.0318,-0.4751 0.0939,-0.6733 0.0621,-0.1967 0.1531,-0.3657 0.273,-0.5027 0.1198,-0.1385 0.2685,-0.2434 0.4462,-0.3163 0.1776,-0.0728 0.3828,-0.1093 0.6138,-0.1093 0.1373,0 0.2774,0.0088 0.4189,0.0234 0.14,0.016 0.2701,0.0349 0.3885,0.0583l-0.1474 0.4823z"/>
   <path id="_175488424" class="fil2" d="M171.331 126.976c-0.065,-0.0044 -0.1386,-0.0117 -0.221,-0.019 -0.0808,-0.0073 -0.1588,-0.0102 -0.2325,-0.0102 -0.0535,0 -0.0997,0.0059 -0.1372,0.0175 -0.0376,0.0117 -0.0752,0.0292 -0.1097,0.0525 -0.0362,0.0248 -0.0708,0.0524 -0.1041,0.086 -0.0332,0.032 -0.0736,0.0699 -0.1184,0.1136l0 2.2195 -0.5719 0 0 -2.9204 0.478 0 0.0809 0.4576 0.0044 0c0.0318,-0.0379 0.0635,-0.0787 0.0967,-0.1225 0.0347,-0.0437 0.0693,-0.0859 0.104,-0.1253 0.0361,-0.0408 0.0737,-0.0772 0.1126,-0.1122 0.0391,-0.0335 0.0824,-0.0612 0.1272,-0.0801 0.0751,-0.035 0.1617,-0.0569 0.257,-0.0671 0.0968,-0.0087 0.2022,-0.0146 0.3178,-0.0146l-0.0838 0.5247z"/>
   <path id="_175488424" class="fil2" d="M172.024 129.436l0 -2.9204 0.5719 0 0 2.9204 -0.5719 0zm0.2802 -4.4185l0.3885 0.3876 -0.3885 0.3891 -0.3856 -0.3891 0.3856 -0.3876z"/>
   <path id="_175488424" class="fil2" d="M173.627 124.646l0.5719 -0.1458 0 1.7983c0,0.051 -0.0014,0.1035 -0.0029,0.1574 -0.0014,0.0539 -0.0014,0.1035 -0.0014,0.1501 -0.0029,0.051 -0.0043,0.1035 -0.0043,0.1574 0.0592,-0.0422 0.1199,-0.0831 0.1819,-0.1195 0.0621,-0.0364 0.1272,-0.0699 0.195,-0.0976 0.0679,-0.0292 0.1387,-0.0525 0.2152,-0.0685 0.0765,-0.0175 0.1604,-0.0263 0.2498,-0.0263 0.1575,0 0.3105,0.0263 0.4564,0.0773 0.1474,0.051 0.2773,0.1341 0.39,0.2477 0.1127,0.1137 0.2037,0.2623 0.2715,0.446 0.0664,0.1836 0.1011,0.4065 0.1011,0.6674 0,0.2536 -0.0332,0.4795 -0.0997,0.6776 -0.0664,0.1982 -0.1617,0.3644 -0.2874,0.5014 -0.1256,0.1369 -0.2787,0.2419 -0.4578,0.3133 -0.1791,0.0728 -0.3813,0.1093 -0.6066,0.1093 -0.1777,0 -0.3654,-0.0117 -0.5647,-0.0365 -0.1993,-0.0233 -0.4014,-0.0655 -0.608,-0.1253l0 -4.6837zm2.0191 3.2789c0,-0.1938 -0.0188,-0.3585 -0.0578,-0.4955 -0.0375,-0.137 -0.0924,-0.2492 -0.1617,-0.3366 -0.0709,-0.0889 -0.156,-0.1531 -0.2542,-0.1924 -0.0997,-0.0408 -0.208,-0.0598 -0.3265,-0.0598 -0.1184,0 -0.2296,0.0117 -0.3364,0.0365 -0.1055,0.0233 -0.2094,0.0554 -0.3106,0.0962l0 2.1553c0.0896,0.0146 0.1762,0.0248 0.26,0.0321 0.0838,0.0073 0.1733,0.0102 0.2686,0.0102 0.1358,0 0.2599,-0.0102 0.3741,-0.0335 0.1155,-0.0234 0.2036,-0.0598 0.2657,-0.1108 0.0303,-0.0291 0.0622,-0.0729 0.0939,-0.1326 0.0332,-0.0598 0.0635,-0.1355 0.0909,-0.2288 0.029,-0.0918 0.0521,-0.2011 0.0679,-0.3235 0.0174,-0.1239 0.0261,-0.2638 0.0261,-0.4168z"/>
   <path id="_175488424" class="fil2" d="M178.24 126.451c0.1257,0 0.2499,0.019 0.3712,0.0554 0.1213,0.0379 0.2325,0.0991 0.3322,0.1866 0.1011,0.0859 0.1877,0.2011 0.2628,0.3453 0.0751,0.1443 0.13,0.3221 0.1675,0.5363l0 0.0335c-0.026,0.0321 -0.0607,0.0598 -0.104,0.086 -0.0433,0.0248 -0.101,0.0481 -0.1718,0.0685 -0.0708,0.019 -0.1574,0.0365 -0.26,0.0525 -0.1025,0.016 -0.2267,0.0277 -0.3697,0.0364l-0.9402 0.0641 0 0.1837c0,0.3439 0.0606,0.5945 0.1819,0.7519 0.1213,0.156 0.3048,0.2346 0.5504,0.2346 0.101,0 0.2065,-0.0102 0.3148,-0.0306 0.1097,-0.0189 0.2123,-0.0437 0.3119,-0.0728 0.0982,-0.0277 0.1878,-0.0569 0.2687,-0.0875 0.0794,-0.0291 0.143,-0.0553 0.1877,-0.0787l0.0722 0.1662c-0.0823,0.0554 -0.1733,0.1122 -0.2744,0.1719 -0.1025,0.0598 -0.2108,0.1137 -0.3292,0.1633 -0.1171,0.051 -0.2399,0.0918 -0.3669,0.1238 -0.1285,0.0335 -0.2614,0.0496 -0.3957,0.0496 -0.1618,0 -0.3105,-0.0248 -0.4463,-0.0773 -0.1372,-0.051 -0.2571,-0.1326 -0.3582,-0.2477 -0.1011,-0.1137 -0.1805,-0.2623 -0.2383,-0.4459 -0.0592,-0.1837 -0.0881,-0.4066 -0.0881,-0.6675 0,-0.2929 0.0347,-0.5421 0.1026,-0.7476 0.0678,-0.2055 0.1603,-0.3701 0.2787,-0.4955 0.1185,-0.1253 0.2585,-0.2156 0.4189,-0.2725 0.1602,-0.0568 0.335,-0.086 0.5213,-0.086zm-0.4795 0.4227c-0.0303,0.0233 -0.0592,0.0597 -0.0866,0.1093 -0.026,0.0495 -0.0491,0.1093 -0.0693,0.1792 -0.0202,0.07 -0.0362,0.1457 -0.0492,0.2288 -0.0116,0.0816 -0.0187,0.1661 -0.0187,0.2521l1.2103 -0.0524c-0.0145,-0.0962 -0.0347,-0.1939 -0.0607,-0.2915 -0.0274,-0.0991 -0.0635,-0.1865 -0.1112,-0.2623 -0.0463,-0.0773 -0.104,-0.1399 -0.1748,-0.188 -0.0708,-0.0496 -0.1574,-0.0729 -0.2585,-0.0729 -0.0679,0 -0.1344,0.0073 -0.2008,0.0204 -0.0664,0.0146 -0.1256,0.0408 -0.1805,0.0773z"/>
   <path id="_175488424" class="fil2" d="M181.68 126.976c-0.065,-0.0044 -0.1386,-0.0117 -0.221,-0.019 -0.0808,-0.0073 -0.1588,-0.0102 -0.2325,-0.0102 -0.0535,0 -0.0997,0.0059 -0.1372,0.0175 -0.0376,0.0117 -0.0752,0.0292 -0.1097,0.0525 -0.0362,0.0248 -0.0708,0.0524 -0.1041,0.086 -0.0332,0.032 -0.0736,0.0699 -0.1184,0.1136l0 2.2195 -0.5719 0 0 -2.9204 0.478 0 0.0809 0.4576 0.0044 0c0.0318,-0.0379 0.0635,-0.0787 0.0967,-0.1225 0.0347,-0.0437 0.0693,-0.0859 0.104,-0.1253 0.0361,-0.0408 0.0737,-0.0772 0.1126,-0.1122 0.0391,-0.0335 0.0824,-0.0612 0.1272,-0.0801 0.0751,-0.035 0.1617,-0.0569 0.257,-0.0671 0.0968,-0.0087 0.2022,-0.0146 0.3178,-0.0146l-0.0838 0.5247z"/>
   <path id="_175488424" class="fil2" d="M184.481 126.976c0.3395,-0.0219 0.5878,-0.1079 0.7497,-0.258 0.1602,-0.1486 0.2411,-0.3483 0.2411,-0.5945 0,-0.2201 -0.0736,-0.3833 -0.2209,-0.4897 -0.1459,-0.1064 -0.3409,-0.1603 -0.5835,-0.1603 -0.1574,0 -0.3149,0.0131 -0.4694,0.0393 -0.156,0.0248 -0.312,0.0671 -0.4694,0.1239l0.1011 -0.5086c0.1213,-0.0393 0.2585,-0.0685 0.4102,-0.0874 0.153,-0.019 0.3004,-0.0277 0.4448,-0.0277 0.2051,0 0.3929,0.0204 0.5618,0.0597 0.1705,0.0394 0.3149,0.1021 0.4347,0.188 0.1199,0.0846 0.2124,0.1939 0.2773,0.3265 0.065,0.1326 0.0968,0.29 0.0968,0.4721 0,0.1472 -0.0289,0.2784 -0.0867,0.3906 -0.0577,0.1122 -0.1285,0.2084 -0.2137,0.29 -0.0852,0.0816 -0.1733,0.1457 -0.2643,0.1938 -0.0924,0.0481 -0.1718,0.0831 -0.2397,0.1035l0 0.0116c0.1141,0.0175 0.2281,0.0496 0.3452,0.0962 0.1169,0.0467 0.2238,0.1108 0.3191,0.1924 0.0968,0.0816 0.1733,0.1807 0.234,0.2987 0.0592,0.1181 0.0881,0.258 0.0881,0.4212 0,0.188 -0.0433,0.3687 -0.1286,0.5421 -0.0866,0.1734 -0.2007,0.3264 -0.3408,0.4591 -0.1415,0.1326 -0.3047,0.2375 -0.4896,0.3177 -0.1834,0.0801 -0.3741,0.1194 -0.569,0.1194 -0.2557,0 -0.4939,-0.0233 -0.7121,-0.0684 -0.2195,-0.0452 -0.413,-0.1166 -0.582,-0.2128l0.1993 -0.5378c0.0564,0.0481 0.1271,0.0977 0.2137,0.1487 0.0853,0.051 0.1791,0.0976 0.2802,0.1413 0.1026,0.0423 0.2066,0.0773 0.3135,0.1064 0.1068,0.0277 0.2108,0.0423 0.309,0.0423 0.26,0 0.4593,-0.0452 0.6009,-0.1355 0.0389,-0.0263 0.078,-0.0569 0.114,-0.0904 0.0376,-0.0335 0.0694,-0.0816 0.0982,-0.1413 0.0275,-0.0598 0.0506,-0.1341 0.0664,-0.223 0.0174,-0.0904 0.0261,-0.204 0.0261,-0.3396 0,-0.2171 -0.0362,-0.3891 -0.1098,-0.5188 -0.0736,-0.1297 -0.1661,-0.2288 -0.2773,-0.2973 -0.1112,-0.0684 -0.2354,-0.1122 -0.3726,-0.1326 -0.1372,-0.0189 -0.2686,-0.0291 -0.3958,-0.0291l0 -0.2317z"/>
  </g>
  <g id="_175487920">
   <path id="_175489624" class="fil2" d="M156.675 98.168c0,0.1647 -0.0332,0.3265 -0.0982,0.4839 -0.065,0.1588 -0.1603,0.3002 -0.2859,0.4255 -0.1243,0.1253 -0.2788,0.2259 -0.4608,0.3031 -0.1819,0.0773 -0.39,0.1151 -0.6239,0.1151 -0.2455,0 -0.465,-0.0291 -0.6586,-0.0859 -0.1921,-0.0569 -0.374,-0.1326 -0.543,-0.2303l0.2108 -0.5115c0.0622,0.0423 0.1373,0.0874 0.2254,0.1341 0.0866,0.0466 0.1804,0.0903 0.2787,0.1297 0.0982,0.0408 0.2007,0.0743 0.3076,0.1005 0.1054,0.0277 0.208,0.0408 0.3062,0.0408 0.1358,0 0.2513,-0.0131 0.3496,-0.0379 0.0967,-0.0262 0.1761,-0.0568 0.2382,-0.0947 0.0347,-0.0204 0.0664,-0.0437 0.0982,-0.0728 0.0303,-0.0277 0.0578,-0.0671 0.0824,-0.1152 0.0231,-0.0481 0.0418,-0.1078 0.0563,-0.1807 0.0144,-0.0728 0.0217,-0.1603 0.0217,-0.2623 0,-0.1341 -0.029,-0.2477 -0.0868,-0.3395 -0.0577,-0.0933 -0.1342,-0.172 -0.231,-0.2376 -0.0953,-0.0656 -0.2036,-0.1224 -0.3249,-0.1734 -0.1213,-0.0496 -0.2456,-0.1006 -0.3713,-0.153 -0.1255,-0.0525 -0.2483,-0.1108 -0.3696,-0.1749 -0.1213,-0.0641 -0.2297,-0.1443 -0.3265,-0.239 -0.0953,-0.0962 -0.1718,-0.2098 -0.2296,-0.3439 -0.0578,-0.1341 -0.0866,-0.2973 -0.0866,-0.4911 0,-0.1341 0.0303,-0.2682 0.0923,-0.4037 0.0622,-0.1355 0.1518,-0.2579 0.2687,-0.3672 0.117,-0.1093 0.2615,-0.1997 0.4318,-0.2682 0.1705,-0.0699 0.364,-0.1049 0.5821,-0.1049 0.1748,0 0.3379,0.0102 0.491,0.0291 0.1516,0.0204 0.3033,0.0467 0.4564,0.0773l-0.1314 0.5173c-0.1604,-0.0568 -0.3279,-0.1064 -0.5041,-0.1486 -0.1747,-0.0408 -0.3379,-0.0612 -0.4895,-0.0612 -0.1185,0 -0.2239,0.0087 -0.3135,0.0262 -0.091,0.016 -0.1603,0.0423 -0.2079,0.0758 -0.0506,0.0408 -0.0939,0.0976 -0.1314,0.1734 -0.0362,0.0758 -0.0549,0.1894 -0.0549,0.3439 0,0.1224 0.0288,0.2259 0.0866,0.309 0.0577,0.0845 0.1357,0.1574 0.2311,0.22 0.0967,0.0627 0.205,0.1195 0.3264,0.1691 0.1213,0.0495 0.2455,0.1005 0.3726,0.153 0.1256,0.0524 0.2498,0.1122 0.3712,0.1792 0.1213,0.0671 0.231,0.1487 0.3264,0.2463 0.0953,0.0962 0.1733,0.2128 0.2311,0.3498 0.0577,0.137 0.0866,0.3016 0.0866,0.4954z"/>
   <path id="_175489624" class="fil2" d="M158.024 96.5155l0 2.0329c0,0.067 0.0059,0.1355 0.0174,0.2026 0.0116,0.067 0.0347,0.1268 0.0694,0.1792 0.036,0.0525 0.0866,0.0962 0.1501,0.1297 0.065,0.035 0.1531,0.051 0.2629,0.051 0.0708,0 0.1459,-0.0087 0.2268,-0.0248 0.0809,-0.0174 0.1617,-0.0393 0.2426,-0.0641 0.0823,-0.0262 0.1617,-0.0554 0.2368,-0.0903 0.0766,-0.0335 0.1459,-0.0685 0.208,-0.102l0 -2.3142 0.5705 0 0 2.9204 -0.4781 0 -0.0837 -0.341c-0.065,0.0364 -0.1401,0.0787 -0.2268,0.1253 -0.0866,0.0467 -0.179,0.0918 -0.2787,0.1326 -0.1011,0.0408 -0.2037,0.0758 -0.3119,0.105 -0.107,0.0276 -0.2153,0.0422 -0.325,0.0422 -0.1243,0 -0.2383,-0.0175 -0.3438,-0.0539 -0.1039,-0.035 -0.1935,-0.0889 -0.2686,-0.1618 -0.0737,-0.0728 -0.1329,-0.1617 -0.1748,-0.2696 -0.0418,-0.1063 -0.0635,-0.2317 -0.0635,-0.3774l0 -2.1218 0.5704 0z"/>
   <path id="_175489624" class="fil2" d="M161.041 94.6458l0.5719 -0.1458 0 1.7983c0,0.051 -0.0014,0.1035 -0.0029,0.1574 -0.0014,0.0539 -0.0014,0.1035 -0.0014,0.1501 -0.0029,0.051 -0.0043,0.1035 -0.0043,0.1574 0.0592,-0.0422 0.1199,-0.0831 0.1819,-0.1195 0.0621,-0.0364 0.1272,-0.0699 0.195,-0.0976 0.0679,-0.0292 0.1387,-0.0525 0.2152,-0.0685 0.0765,-0.0175 0.1604,-0.0263 0.2498,-0.0263 0.1575,0 0.3105,0.0263 0.4564,0.0773 0.1474,0.051 0.2773,0.1341 0.39,0.2477 0.1127,0.1137 0.2037,0.2623 0.2715,0.446 0.0664,0.1836 0.1011,0.4065 0.1011,0.6674 0,0.2536 -0.0332,0.4795 -0.0997,0.6776 -0.0664,0.1982 -0.1617,0.3644 -0.2874,0.5014 -0.1256,0.1369 -0.2787,0.2419 -0.4578,0.3133 -0.1791,0.0728 -0.3813,0.1093 -0.6066,0.1093 -0.1777,0 -0.3654,-0.0117 -0.5647,-0.0365 -0.1993,-0.0233 -0.4014,-0.0655 -0.608,-0.1253l0 -4.6837zm2.0191 3.2789c0,-0.1938 -0.0188,-0.3585 -0.0578,-0.4955 -0.0375,-0.137 -0.0924,-0.2492 -0.1617,-0.3366 -0.0709,-0.0889 -0.156,-0.1531 -0.2542,-0.1924 -0.0997,-0.0408 -0.208,-0.0598 -0.3265,-0.0598 -0.1184,0 -0.2296,0.0117 -0.3364,0.0365 -0.1055,0.0233 -0.2094,0.0554 -0.3106,0.0962l0 2.1553c0.0896,0.0146 0.1762,0.0248 0.26,0.0321 0.0838,0.0073 0.1733,0.0102 0.2686,0.0102 0.1358,0 0.2599,-0.0102 0.3741,-0.0335 0.1155,-0.0234 0.2036,-0.0598 0.2657,-0.1108 0.0303,-0.0291 0.0622,-0.0729 0.0939,-0.1326 0.0332,-0.0598 0.0635,-0.1355 0.0909,-0.2288 0.029,-0.0918 0.0521,-0.2011 0.0679,-0.3235 0.0174,-0.1239 0.0261,-0.2638 0.0261,-0.4168z"/>
   <path id="_175489624" class="fil2" d="M166.305 98.5178c0,0.1457 -0.0246,0.2696 -0.0752,0.3731 -0.049,0.1049 -0.114,0.1967 -0.1964,0.2754 -0.0447,0.0437 -0.0938,0.0845 -0.1473,0.1239 -0.0534,0.0408 -0.114,0.0757 -0.1819,0.1049 -0.0679,0.0306 -0.1445,0.0539 -0.2296,0.0714 -0.0839,0.016 -0.1791,0.0248 -0.2832,0.0248 -0.192,0 -0.3668,-0.0219 -0.5242,-0.0641 -0.1574,-0.0423 -0.3062,-0.1108 -0.4448,-0.2041l0.1689 -0.3978c0.0621,0.0393 0.1286,0.0787 0.1993,0.118 0.0708,0.0379 0.1444,0.0729 0.2224,0.1064 0.078,0.0321 0.1575,0.0583 0.2384,0.0787 0.0822,0.0204 0.1675,0.0306 0.2542,0.0306 0.0967,0 0.1776,-0.0073 0.2455,-0.0218 0.0679,-0.0146 0.1256,-0.0379 0.1733,-0.0729 0.0462,-0.0306 0.0823,-0.0758 0.1097,-0.1341 0.029,-0.0583 0.0433,-0.1428 0.0433,-0.2536 0,-0.1005 -0.0389,-0.1821 -0.114,-0.2433 -0.0766,-0.0627 -0.1719,-0.1181 -0.286,-0.1632 -0.1141,-0.0452 -0.2383,-0.0904 -0.3726,-0.137 -0.1343,-0.0452 -0.2586,-0.102 -0.3726,-0.1705 -0.1141,-0.0685 -0.2094,-0.1545 -0.2846,-0.258 -0.0765,-0.1034 -0.1155,-0.239 -0.1155,-0.4036 0,-0.1225 0.026,-0.2274 0.0766,-0.3134 0.0505,-0.0874 0.1141,-0.1676 0.1906,-0.2419 0.0953,-0.0903 0.208,-0.1632 0.3337,-0.2157 0.127,-0.0524 0.2671,-0.0787 0.4202,-0.0787 0.1199,0 0.2484,0.0088 0.3827,0.0234 0.1329,0.016 0.2614,0.0335 0.3827,0.0539l-0.0852 0.4226c-0.0563,-0.0146 -0.1184,-0.0291 -0.1863,-0.0423 -0.0678,-0.0145 -0.1372,-0.0276 -0.2094,-0.0393 -0.0722,-0.0117 -0.14,-0.0204 -0.2065,-0.0277 -0.0664,-0.0073 -0.1256,-0.0102 -0.1762,-0.0102 -0.1126,0 -0.2007,0.0058 -0.2629,0.0189 -0.0606,0.0132 -0.1097,0.0321 -0.143,0.0583 -0.0317,0.0219 -0.0548,0.054 -0.0693,0.0962 -0.0158,0.0408 -0.0245,0.0947 -0.0245,0.1632 0,0.0919 0.039,0.1662 0.1155,0.223 0.0751,0.0568 0.1719,0.1078 0.2874,0.153 0.1156,0.0452 0.2398,0.0918 0.3727,0.1385 0.1314,0.0481 0.2555,0.1064 0.3711,0.1748 0.1156,0.07 0.2123,0.1574 0.2889,0.2609 0.0751,0.1035 0.1141,0.2375 0.1141,0.3993z"/>
   <path id="_175489624" class="fil2" d="M168.978 97.0153c-0.0534,-0.0262 -0.1169,-0.0524 -0.1906,-0.0816 -0.0737,-0.0277 -0.1487,-0.0524 -0.2267,-0.0743 -0.078,-0.0219 -0.1531,-0.0394 -0.2282,-0.0539 -0.0752,-0.0131 -0.1387,-0.0204 -0.1921,-0.0204 -0.0679,0 -0.1358,0.0102 -0.2008,0.0335 -0.0664,0.0233 -0.1328,0.0627 -0.1978,0.1195 -0.0303,0.0291 -0.0607,0.067 -0.091,0.1151 -0.0289,0.0481 -0.0549,0.1151 -0.078,0.1982 -0.0217,0.0845 -0.0404,0.1895 -0.052,0.3148 -0.013,0.1253 -0.0202,0.2769 -0.0202,0.4561 0,0.2055 0.0158,0.376 0.0476,0.513 0.0304,0.137 0.078,0.2448 0.1416,0.3264 0.0635,0.0816 0.1415,0.1385 0.2368,0.1734 0.0939,0.0336 0.2037,0.051 0.3279,0.051 0.1401,0 0.2874,-0.0174 0.4405,-0.051 0.1516,-0.0349 0.2903,-0.0801 0.4144,-0.1369l0.0752 0.1748c-0.0722,0.054 -0.1531,0.1064 -0.2383,0.1574 -0.0867,0.0525 -0.1777,0.0962 -0.273,0.1355 -0.0967,0.0379 -0.1963,0.0685 -0.3004,0.0919 -0.104,0.0218 -0.2138,0.0335 -0.3264,0.0335 -0.1603,0 -0.3119,-0.0248 -0.4521,-0.0773 -0.1415,-0.051 -0.2642,-0.1326 -0.3682,-0.2477 -0.104,-0.1137 -0.1864,-0.2623 -0.2455,-0.4459 -0.0593,-0.1837 -0.0896,-0.4066 -0.0896,-0.6675 0,-0.2506 0.0318,-0.4751 0.0939,-0.6733 0.0621,-0.1967 0.1531,-0.3657 0.273,-0.5027 0.1198,-0.1385 0.2685,-0.2434 0.4462,-0.3163 0.1776,-0.0728 0.3828,-0.1093 0.6138,-0.1093 0.1373,0 0.2774,0.0088 0.4189,0.0234 0.14,0.016 0.2701,0.0349 0.3885,0.0583l-0.1474 0.4823z"/>
   <path id="_175489624" class="fil2" d="M171.331 96.976c-0.065,-0.0044 -0.1386,-0.0117 -0.221,-0.019 -0.0808,-0.0073 -0.1588,-0.0102 -0.2325,-0.0102 -0.0535,0 -0.0997,0.0059 -0.1372,0.0175 -0.0376,0.0117 -0.0752,0.0292 -0.1097,0.0525 -0.0362,0.0248 -0.0708,0.0524 -0.1041,0.086 -0.0332,0.032 -0.0736,0.0699 -0.1184,0.1136l0 2.2195 -0.5719 0 0 -2.9204 0.478 0 0.0809 0.4576 0.0044 0c0.0318,-0.0379 0.0635,-0.0787 0.0967,-0.1225 0.0347,-0.0437 0.0693,-0.0859 0.104,-0.1253 0.0361,-0.0408 0.0737,-0.0772 0.1126,-0.1122 0.0391,-0.0335 0.0824,-0.0612 0.1272,-0.0801 0.0751,-0.035 0.1617,-0.0569 0.257,-0.0671 0.0968,-0.0087 0.2022,-0.0146 0.3178,-0.0146l-0.0838 0.5247z"/>
   <path id="_175489624" class="fil2" d="M172.024 99.4359l0 -2.9204 0.5719 0 0 2.9204 -0.5719 0zm0.2802 -4.4185l0.3885 0.3876 -0.3885 0.3891 -0.3856 -0.3891 0.3856 -0.3876z"/>
   <path id="_175489624" class="fil2" d="M173.627 94.6458l0.5719 -0.1458 0 1.7983c0,0.051 -0.0014,0.1035 -0.0029,0.1574 -0.0014,0.0539 -0.0014,0.1035 -0.0014,0.1501 -0.0029,0.051 -0.0043,0.1035 -0.0043,0.1574 0.0592,-0.0422 0.1199,-0.0831 0.1819,-0.1195 0.0621,-0.0364 0.1272,-0.0699 0.195,-0.0976 0.0679,-0.0292 0.1387,-0.0525 0.2152,-0.0685 0.0765,-0.0175 0.1604,-0.0263 0.2498,-0.0263 0.1575,0 0.3105,0.0263 0.4564,0.0773 0.1474,0.051 0.2773,0.1341 0.39,0.2477 0.1127,0.1137 0.2037,0.2623 0.2715,0.446 0.0664,0.1836 0.1011,0.4065 0.1011,0.6674 0,0.2536 -0.0332,0.4795 -0.0997,0.6776 -0.0664,0.1982 -0.1617,0.3644 -0.2874,0.5014 -0.1256,0.1369 -0.2787,0.2419 -0.4578,0.3133 -0.1791,0.0728 -0.3813,0.1093 -0.6066,0.1093 -0.1777,0 -0.3654,-0.0117 -0.5647,-0.0365 -0.1993,-0.0233 -0.4014,-0.0655 -0.608,-0.1253l0 -4.6837zm2.0191 3.2789c0,-0.1938 -0.0188,-0.3585 -0.0578,-0.4955 -0.0375,-0.137 -0.0924,-0.2492 -0.1617,-0.3366 -0.0709,-0.0889 -0.156,-0.1531 -0.2542,-0.1924 -0.0997,-0.0408 -0.208,-0.0598 -0.3265,-0.0598 -0.1184,0 -0.2296,0.0117 -0.3364,0.0365 -0.1055,0.0233 -0.2094,0.0554 -0.3106,0.0962l0 2.1553c0.0896,0.0146 0.1762,0.0248 0.26,0.0321 0.0838,0.0073 0.1733,0.0102 0.2686,0.0102 0.1358,0 0.2599,-0.0102 0.3741,-0.0335 0.1155,-0.0234 0.2036,-0.0598 0.2657,-0.1108 0.0303,-0.0291 0.0622,-0.0729 0.0939,-0.1326 0.0332,-0.0598 0.0635,-0.1355 0.0909,-0.2288 0.029,-0.0918 0.0521,-0.2011 0.0679,-0.3235 0.0174,-0.1239 0.0261,-0.2638 0.0261,-0.4168z"/>
   <path id="_175489624" class="fil2" d="M178.24 96.4513c0.1257,0 0.2499,0.019 0.3712,0.0554 0.1213,0.0379 0.2325,0.0991 0.3322,0.1866 0.1011,0.0859 0.1877,0.2011 0.2628,0.3453 0.0751,0.1443 0.13,0.3221 0.1675,0.5363l0 0.0335c-0.026,0.0321 -0.0607,0.0598 -0.104,0.086 -0.0433,0.0248 -0.101,0.0481 -0.1718,0.0685 -0.0708,0.019 -0.1574,0.0365 -0.26,0.0525 -0.1025,0.016 -0.2267,0.0277 -0.3697,0.0364l-0.9402 0.0641 0 0.1837c0,0.3439 0.0606,0.5945 0.1819,0.7519 0.1213,0.156 0.3048,0.2346 0.5504,0.2346 0.101,0 0.2065,-0.0102 0.3148,-0.0306 0.1097,-0.0189 0.2123,-0.0437 0.3119,-0.0728 0.0982,-0.0277 0.1878,-0.0569 0.2687,-0.0875 0.0794,-0.0291 0.143,-0.0553 0.1877,-0.0787l0.0722 0.1662c-0.0823,0.0554 -0.1733,0.1122 -0.2744,0.1719 -0.1025,0.0598 -0.2108,0.1137 -0.3292,0.1633 -0.1171,0.051 -0.2399,0.0918 -0.3669,0.1238 -0.1285,0.0335 -0.2614,0.0496 -0.3957,0.0496 -0.1618,0 -0.3105,-0.0248 -0.4463,-0.0773 -0.1372,-0.051 -0.2571,-0.1326 -0.3582,-0.2477 -0.1011,-0.1137 -0.1805,-0.2623 -0.2383,-0.4459 -0.0592,-0.1837 -0.0881,-0.4066 -0.0881,-0.6675 0,-0.2929 0.0347,-0.5421 0.1026,-0.7476 0.0678,-0.2055 0.1603,-0.3701 0.2787,-0.4955 0.1185,-0.1253 0.2585,-0.2156 0.4189,-0.2725 0.1602,-0.0568 0.335,-0.086 0.5213,-0.086zm-0.4795 0.4227c-0.0303,0.0233 -0.0592,0.0597 -0.0866,0.1093 -0.026,0.0495 -0.0491,0.1093 -0.0693,0.1792 -0.0202,0.07 -0.0362,0.1457 -0.0492,0.2288 -0.0116,0.0816 -0.0187,0.1661 -0.0187,0.2521l1.2103 -0.0524c-0.0145,-0.0962 -0.0347,-0.1939 -0.0607,-0.2915 -0.0274,-0.0991 -0.0635,-0.1865 -0.1112,-0.2623 -0.0463,-0.0773 -0.104,-0.1399 -0.1748,-0.188 -0.0708,-0.0496 -0.1574,-0.0729 -0.2585,-0.0729 -0.0679,0 -0.1344,0.0073 -0.2008,0.0204 -0.0664,0.0146 -0.1256,0.0408 -0.1805,0.0773z"/>
   <path id="_175489624" class="fil2" d="M181.68 96.976c-0.065,-0.0044 -0.1386,-0.0117 -0.221,-0.019 -0.0808,-0.0073 -0.1588,-0.0102 -0.2325,-0.0102 -0.0535,0 -0.0997,0.0059 -0.1372,0.0175 -0.0376,0.0117 -0.0752,0.0292 -0.1097,0.0525 -0.0362,0.0248 -0.0708,0.0524 -0.1041,0.086 -0.0332,0.032 -0.0736,0.0699 -0.1184,0.1136l0 2.2195 -0.5719 0 0 -2.9204 0.478 0 0.0809 0.4576 0.0044 0c0.0318,-0.0379 0.0635,-0.0787 0.0967,-0.1225 0.0347,-0.0437 0.0693,-0.0859 0.104,-0.1253 0.0361,-0.0408 0.0737,-0.0772 0.1126,-0.1122 0.0391,-0.0335 0.0824,-0.0612 0.1272,-0.0801 0.0751,-0.035 0.1617,-0.0569 0.257,-0.0671 0.0968,-0.0087 0.2022,-0.0146 0.3178,-0.0146l-0.0838 0.5247z"/>
   <path id="_175489624" class="fil2" d="M184.198 98.9535c0.0736,0 0.1617,-0.0014 0.2643,-0.0029 0.1026,0 0.2138,-0.0014 0.3322,-0.0029 0.1184,-0.0015 0.2411,-0.0029 0.3654,-0.0044 0.1256,-0.0014 0.2499,-0.0043 0.3712,-0.0073 0.2816,-0.0058 0.5776,-0.0131 0.8881,-0.0204l-0.1487 0.5203 -2.708 0 0 -0.2128 1.3171 -1.5797c0.1749,-0.2055 0.3178,-0.427 0.4291,-0.6645 0.1112,-0.2375 0.1675,-0.4795 0.1675,-0.7243 0,-0.1355 -0.0217,-0.2536 -0.0636,-0.3512 -0.0433,-0.0991 -0.1011,-0.1792 -0.1733,-0.2434 -0.0736,-0.0641 -0.1617,-0.1107 -0.2643,-0.1413 -0.104,-0.0292 -0.2152,-0.0452 -0.3365,-0.0452 -0.1588,0 -0.3264,0.016 -0.504,0.0466 -0.1777,0.0321 -0.3452,0.0758 -0.5041,0.1326l0.0939 -0.4954c0.0593,-0.019 0.13,-0.0379 0.2109,-0.0569 0.0822,-0.0189 0.1675,-0.0349 0.2571,-0.0466 0.0881,-0.0131 0.1762,-0.0233 0.2643,-0.0306 0.0866,-0.0073 0.1675,-0.0102 0.2411,-0.0102 0.2051,0 0.3928,0.0219 0.5604,0.0656 0.1675,0.0451 0.3105,0.1107 0.429,0.2011 0.1184,0.0889 0.2107,0.2025 0.2758,0.3366 0.065,0.1355 0.0968,0.2944 0.0968,0.4766 0,0.1544 -0.0232,0.2987 -0.0679,0.4357 -0.0448,0.137 -0.1069,0.271 -0.1863,0.4051 -0.078,0.1341 -0.1719,0.2682 -0.2788,0.4022 -0.1068,0.1326 -0.221,0.274 -0.3423,0.4226l-0.9864 1.195z"/>
  </g>
  <g id="_175489240">
   <path id="_175490704" class="fil2" d="M156.675 68.168c0,0.1647 -0.0332,0.3265 -0.0982,0.4839 -0.065,0.1588 -0.1603,0.3002 -0.2859,0.4255 -0.1243,0.1253 -0.2788,0.2259 -0.4608,0.3031 -0.1819,0.0773 -0.39,0.1151 -0.6239,0.1151 -0.2455,0 -0.465,-0.0291 -0.6586,-0.0859 -0.1921,-0.0569 -0.374,-0.1326 -0.543,-0.2303l0.2108 -0.5115c0.0622,0.0423 0.1373,0.0874 0.2254,0.1341 0.0866,0.0466 0.1804,0.0903 0.2787,0.1297 0.0982,0.0408 0.2007,0.0743 0.3076,0.1005 0.1054,0.0277 0.208,0.0408 0.3062,0.0408 0.1358,0 0.2513,-0.0131 0.3496,-0.0379 0.0967,-0.0262 0.1761,-0.0568 0.2382,-0.0947 0.0347,-0.0204 0.0664,-0.0437 0.0982,-0.0728 0.0303,-0.0277 0.0578,-0.0671 0.0824,-0.1152 0.0231,-0.0481 0.0418,-0.1078 0.0563,-0.1807 0.0144,-0.0728 0.0217,-0.1603 0.0217,-0.2623 0,-0.1341 -0.029,-0.2477 -0.0868,-0.3395 -0.0577,-0.0933 -0.1342,-0.172 -0.231,-0.2376 -0.0953,-0.0656 -0.2036,-0.1224 -0.3249,-0.1734 -0.1213,-0.0496 -0.2456,-0.1006 -0.3713,-0.153 -0.1255,-0.0525 -0.2483,-0.1108 -0.3696,-0.1749 -0.1213,-0.0641 -0.2297,-0.1443 -0.3265,-0.239 -0.0953,-0.0962 -0.1718,-0.2098 -0.2296,-0.3439 -0.0578,-0.1341 -0.0866,-0.2973 -0.0866,-0.4911 0,-0.1341 0.0303,-0.2682 0.0923,-0.4037 0.0622,-0.1355 0.1518,-0.2579 0.2687,-0.3672 0.117,-0.1093 0.2615,-0.1997 0.4318,-0.2682 0.1705,-0.0699 0.364,-0.1049 0.5821,-0.1049 0.1748,0 0.3379,0.0102 0.491,0.0291 0.1516,0.0204 0.3033,0.0467 0.4564,0.0773l-0.1314 0.5173c-0.1604,-0.0568 -0.3279,-0.1064 -0.5041,-0.1486 -0.1747,-0.0408 -0.3379,-0.0612 -0.4895,-0.0612 -0.1185,0 -0.2239,0.0087 -0.3135,0.0262 -0.091,0.016 -0.1603,0.0423 -0.2079,0.0758 -0.0506,0.0408 -0.0939,0.0976 -0.1314,0.1734 -0.0362,0.0758 -0.0549,0.1894 -0.0549,0.3439 0,0.1224 0.0288,0.2259 0.0866,0.309 0.0577,0.0845 0.1357,0.1574 0.2311,0.22 0.0967,0.0627 0.205,0.1195 0.3264,0.1691 0.1213,0.0495 0.2455,0.1005 0.3726,0.153 0.1256,0.0524 0.2498,0.1122 0.3712,0.1792 0.1213,0.0671 0.231,0.1487 0.3264,0.2463 0.0953,0.0962 0.1733,0.2128 0.2311,0.3498 0.0577,0.137 0.0866,0.3016 0.0866,0.4954z"/>
   <path id="_175490704" class="fil2" d="M158.024 66.5155l0 2.0329c0,0.067 0.0059,0.1355 0.0174,0.2026 0.0116,0.067 0.0347,0.1268 0.0694,0.1792 0.036,0.0525 0.0866,0.0962 0.1501,0.1297 0.065,0.035 0.1531,0.051 0.2629,0.051 0.0708,0 0.1459,-0.0087 0.2268,-0.0248 0.0809,-0.0174 0.1617,-0.0393 0.2426,-0.0641 0.0823,-0.0262 0.1617,-0.0554 0.2368,-0.0903 0.0766,-0.0335 0.1459,-0.0685 0.208,-0.102l0 -2.3142 0.5705 0 0 2.9204 -0.4781 0 -0.0837 -0.341c-0.065,0.0364 -0.1401,0.0787 -0.2268,0.1253 -0.0866,0.0467 -0.179,0.0918 -0.2787,0.1326 -0.1011,0.0408 -0.2037,0.0758 -0.3119,0.105 -0.107,0.0276 -0.2153,0.0422 -0.325,0.0422 -0.1243,0 -0.2383,-0.0175 -0.3438,-0.0539 -0.1039,-0.035 -0.1935,-0.0889 -0.2686,-0.1618 -0.0737,-0.0728 -0.1329,-0.1617 -0.1748,-0.2696 -0.0418,-0.1063 -0.0635,-0.2317 -0.0635,-0.3774l0 -2.1218 0.5704 0z"/>
   <path id="_175490704" class="fil2" d="M161.041 64.6458l0.5719 -0.1458 0 1.7983c0,0.051 -0.0014,0.1035 -0.0029,0.1574 -0.0014,0.0539 -0.0014,0.1035 -0.0014,0.1501 -0.0029,0.051 -0.0043,0.1035 -0.0043,0.1574 0.0592,-0.0422 0.1199,-0.0831 0.1819,-0.1195 0.0621,-0.0364 0.1272,-0.0699 0.195,-0.0976 0.0679,-0.0292 0.1387,-0.0525 0.2152,-0.0685 0.0765,-0.0175 0.1604,-0.0263 0.2498,-0.0263 0.1575,0 0.3105,0.0263 0.4564,0.0773 0.1474,0.051 0.2773,0.1341 0.39,0.2477 0.1127,0.1137 0.2037,0.2623 0.2715,0.446 0.0664,0.1836 0.1011,0.4065 0.1011,0.6674 0,0.2536 -0.0332,0.4795 -0.0997,0.6776 -0.0664,0.1982 -0.1617,0.3644 -0.2874,0.5014 -0.1256,0.1369 -0.2787,0.2419 -0.4578,0.3133 -0.1791,0.0728 -0.3813,0.1093 -0.6066,0.1093 -0.1777,0 -0.3654,-0.0117 -0.5647,-0.0365 -0.1993,-0.0233 -0.4014,-0.0655 -0.608,-0.1253l0 -4.6837zm2.0191 3.2789c0,-0.1938 -0.0188,-0.3585 -0.0578,-0.4955 -0.0375,-0.137 -0.0924,-0.2492 -0.1617,-0.3366 -0.0709,-0.0889 -0.156,-0.1531 -0.2542,-0.1924 -0.0997,-0.0408 -0.208,-0.0598 -0.3265,-0.0598 -0.1184,0 -0.2296,0.0117 -0.3364,0.0365 -0.1055,0.0233 -0.2094,0.0554 -0.3106,0.0962l0 2.1553c0.0896,0.0146 0.1762,0.0248 0.26,0.0321 0.0838,0.0073 0.1733,0.0102 0.2686,0.0102 0.1358,0 0.2599,-0.0102 0.3741,-0.0335 0.1155,-0.0234 0.2036,-0.0598 0.2657,-0.1108 0.0303,-0.0291 0.0622,-0.0729 0.0939,-0.1326 0.0332,-0.0598 0.0635,-0.1355 0.0909,-0.2288 0.029,-0.0918 0.0521,-0.2011 0.0679,-0.3235 0.0174,-0.1239 0.0261,-0.2638 0.0261,-0.4168z"/>
   <path id="_175490704" class="fil2" d="M166.305 68.5178c0,0.1457 -0.0246,0.2696 -0.0752,0.3731 -0.049,0.1049 -0.114,0.1967 -0.1964,0.2754 -0.0447,0.0437 -0.0938,0.0845 -0.1473,0.1239 -0.0534,0.0408 -0.114,0.0757 -0.1819,0.1049 -0.0679,0.0306 -0.1445,0.0539 -0.2296,0.0714 -0.0839,0.016 -0.1791,0.0248 -0.2832,0.0248 -0.192,0 -0.3668,-0.0219 -0.5242,-0.0641 -0.1574,-0.0423 -0.3062,-0.1108 -0.4448,-0.2041l0.1689 -0.3978c0.0621,0.0393 0.1286,0.0787 0.1993,0.118 0.0708,0.0379 0.1444,0.0729 0.2224,0.1064 0.078,0.0321 0.1575,0.0583 0.2384,0.0787 0.0822,0.0204 0.1675,0.0306 0.2542,0.0306 0.0967,0 0.1776,-0.0073 0.2455,-0.0218 0.0679,-0.0146 0.1256,-0.0379 0.1733,-0.0729 0.0462,-0.0306 0.0823,-0.0758 0.1097,-0.1341 0.029,-0.0583 0.0433,-0.1428 0.0433,-0.2536 0,-0.1005 -0.0389,-0.1821 -0.114,-0.2433 -0.0766,-0.0627 -0.1719,-0.1181 -0.286,-0.1632 -0.1141,-0.0452 -0.2383,-0.0904 -0.3726,-0.137 -0.1343,-0.0452 -0.2586,-0.102 -0.3726,-0.1705 -0.1141,-0.0685 -0.2094,-0.1545 -0.2846,-0.258 -0.0765,-0.1034 -0.1155,-0.239 -0.1155,-0.4036 0,-0.1225 0.026,-0.2274 0.0766,-0.3134 0.0505,-0.0874 0.1141,-0.1676 0.1906,-0.2419 0.0953,-0.0903 0.208,-0.1632 0.3337,-0.2157 0.127,-0.0524 0.2671,-0.0787 0.4202,-0.0787 0.1199,0 0.2484,0.0088 0.3827,0.0234 0.1329,0.016 0.2614,0.0335 0.3827,0.0539l-0.0852 0.4226c-0.0563,-0.0146 -0.1184,-0.0291 -0.1863,-0.0423 -0.0678,-0.0145 -0.1372,-0.0276 -0.2094,-0.0393 -0.0722,-0.0117 -0.14,-0.0204 -0.2065,-0.0277 -0.0664,-0.0073 -0.1256,-0.0102 -0.1762,-0.0102 -0.1126,0 -0.2007,0.0058 -0.2629,0.0189 -0.0606,0.0132 -0.1097,0.0321 -0.143,0.0583 -0.0317,0.0219 -0.0548,0.054 -0.0693,0.0962 -0.0158,0.0408 -0.0245,0.0947 -0.0245,0.1632 0,0.0919 0.039,0.1662 0.1155,0.223 0.0751,0.0568 0.1719,0.1078 0.2874,0.153 0.1156,0.0452 0.2398,0.0918 0.3727,0.1385 0.1314,0.0481 0.2555,0.1064 0.3711,0.1748 0.1156,0.07 0.2123,0.1574 0.2889,0.2609 0.0751,0.1035 0.1141,0.2375 0.1141,0.3993z"/>
   <path id="_175490704" class="fil2" d="M168.978 67.0153c-0.0534,-0.0262 -0.1169,-0.0524 -0.1906,-0.0816 -0.0737,-0.0277 -0.1487,-0.0524 -0.2267,-0.0743 -0.078,-0.0219 -0.1531,-0.0394 -0.2282,-0.0539 -0.0752,-0.0131 -0.1387,-0.0204 -0.1921,-0.0204 -0.0679,0 -0.1358,0.0102 -0.2008,0.0335 -0.0664,0.0233 -0.1328,0.0627 -0.1978,0.1195 -0.0303,0.0291 -0.0607,0.067 -0.091,0.1151 -0.0289,0.0481 -0.0549,0.1151 -0.078,0.1982 -0.0217,0.0845 -0.0404,0.1895 -0.052,0.3148 -0.013,0.1253 -0.0202,0.2769 -0.0202,0.4561 0,0.2055 0.0158,0.376 0.0476,0.513 0.0304,0.137 0.078,0.2448 0.1416,0.3264 0.0635,0.0816 0.1415,0.1385 0.2368,0.1734 0.0939,0.0336 0.2037,0.051 0.3279,0.051 0.1401,0 0.2874,-0.0174 0.4405,-0.051 0.1516,-0.0349 0.2903,-0.0801 0.4144,-0.1369l0.0752 0.1748c-0.0722,0.054 -0.1531,0.1064 -0.2383,0.1574 -0.0867,0.0525 -0.1777,0.0962 -0.273,0.1355 -0.0967,0.0379 -0.1963,0.0685 -0.3004,0.0919 -0.104,0.0218 -0.2138,0.0335 -0.3264,0.0335 -0.1603,0 -0.3119,-0.0248 -0.4521,-0.0773 -0.1415,-0.051 -0.2642,-0.1326 -0.3682,-0.2477 -0.104,-0.1137 -0.1864,-0.2623 -0.2455,-0.4459 -0.0593,-0.1837 -0.0896,-0.4066 -0.0896,-0.6675 0,-0.2506 0.0318,-0.4751 0.0939,-0.6733 0.0621,-0.1967 0.1531,-0.3657 0.273,-0.5027 0.1198,-0.1385 0.2685,-0.2434 0.4462,-0.3163 0.1776,-0.0728 0.3828,-0.1093 0.6138,-0.1093 0.1373,0 0.2774,0.0088 0.4189,0.0234 0.14,0.016 0.2701,0.0349 0.3885,0.0583l-0.1474 0.4823z"/>
   <path id="_175490704" class="fil2" d="M171.331 66.976c-0.065,-0.0044 -0.1386,-0.0117 -0.221,-0.019 -0.0808,-0.0073 -0.1588,-0.0102 -0.2325,-0.0102 -0.0535,0 -0.0997,0.0059 -0.1372,0.0175 -0.0376,0.0117 -0.0752,0.0292 -0.1097,0.0525 -0.0362,0.0248 -0.0708,0.0524 -0.1041,0.086 -0.0332,0.032 -0.0736,0.0699 -0.1184,0.1136l0 2.2195 -0.5719 0 0 -2.9204 0.478 0 0.0809 0.4576 0.0044 0c0.0318,-0.0379 0.0635,-0.0787 0.0967,-0.1225 0.0347,-0.0437 0.0693,-0.0859 0.104,-0.1253 0.0361,-0.0408 0.0737,-0.0772 0.1126,-0.1122 0.0391,-0.0335 0.0824,-0.0612 0.1272,-0.0801 0.0751,-0.035 0.1617,-0.0569 0.257,-0.0671 0.0968,-0.0087 0.2022,-0.0146 0.3178,-0.0146l-0.0838 0.5247z"/>
   <path id="_175490704" class="fil2" d="M172.024 69.4359l0 -2.9204 0.5719 0 0 2.9204 -0.5719 0zm0.2802 -4.4185l0.3885 0.3876 -0.3885 0.3891 -0.3856 -0.3891 0.3856 -0.3876z"/>
   <path id="_175490704" class="fil2" d="M173.627 64.6458l0.5719 -0.1458 0 1.7983c0,0.051 -0.0014,0.1035 -0.0029,0.1574 -0.0014,0.0539 -0.0014,0.1035 -0.0014,0.1501 -0.0029,0.051 -0.0043,0.1035 -0.0043,0.1574 0.0592,-0.0422 0.1199,-0.0831 0.1819,-0.1195 0.0621,-0.0364 0.1272,-0.0699 0.195,-0.0976 0.0679,-0.0292 0.1387,-0.0525 0.2152,-0.0685 0.0765,-0.0175 0.1604,-0.0263 0.2498,-0.0263 0.1575,0 0.3105,0.0263 0.4564,0.0773 0.1474,0.051 0.2773,0.1341 0.39,0.2477 0.1127,0.1137 0.2037,0.2623 0.2715,0.446 0.0664,0.1836 0.1011,0.4065 0.1011,0.6674 0,0.2536 -0.0332,0.4795 -0.0997,0.6776 -0.0664,0.1982 -0.1617,0.3644 -0.2874,0.5014 -0.1256,0.1369 -0.2787,0.2419 -0.4578,0.3133 -0.1791,0.0728 -0.3813,0.1093 -0.6066,0.1093 -0.1777,0 -0.3654,-0.0117 -0.5647,-0.0365 -0.1993,-0.0233 -0.4014,-0.0655 -0.608,-0.1253l0 -4.6837zm2.0191 3.2789c0,-0.1938 -0.0188,-0.3585 -0.0578,-0.4955 -0.0375,-0.137 -0.0924,-0.2492 -0.1617,-0.3366 -0.0709,-0.0889 -0.156,-0.1531 -0.2542,-0.1924 -0.0997,-0.0408 -0.208,-0.0598 -0.3265,-0.0598 -0.1184,0 -0.2296,0.0117 -0.3364,0.0365 -0.1055,0.0233 -0.2094,0.0554 -0.3106,0.0962l0 2.1553c0.0896,0.0146 0.1762,0.0248 0.26,0.0321 0.0838,0.0073 0.1733,0.0102 0.2686,0.0102 0.1358,0 0.2599,-0.0102 0.3741,-0.0335 0.1155,-0.0234 0.2036,-0.0598 0.2657,-0.1108 0.0303,-0.0291 0.0622,-0.0729 0.0939,-0.1326 0.0332,-0.0598 0.0635,-0.1355 0.0909,-0.2288 0.029,-0.0918 0.0521,-0.2011 0.0679,-0.3235 0.0174,-0.1239 0.0261,-0.2638 0.0261,-0.4168z"/>
   <path id="_175490704" class="fil2" d="M178.24 66.4513c0.1257,0 0.2499,0.019 0.3712,0.0554 0.1213,0.0379 0.2325,0.0991 0.3322,0.1866 0.1011,0.0859 0.1877,0.2011 0.2628,0.3453 0.0751,0.1443 0.13,0.3221 0.1675,0.5363l0 0.0335c-0.026,0.0321 -0.0607,0.0598 -0.104,0.086 -0.0433,0.0248 -0.101,0.0481 -0.1718,0.0685 -0.0708,0.019 -0.1574,0.0365 -0.26,0.0525 -0.1025,0.016 -0.2267,0.0277 -0.3697,0.0364l-0.9402 0.0641 0 0.1837c0,0.3439 0.0606,0.5945 0.1819,0.7519 0.1213,0.156 0.3048,0.2346 0.5504,0.2346 0.101,0 0.2065,-0.0102 0.3148,-0.0306 0.1097,-0.0189 0.2123,-0.0437 0.3119,-0.0728 0.0982,-0.0277 0.1878,-0.0569 0.2687,-0.0875 0.0794,-0.0291 0.143,-0.0553 0.1877,-0.0787l0.0722 0.1662c-0.0823,0.0554 -0.1733,0.1122 -0.2744,0.1719 -0.1025,0.0598 -0.2108,0.1137 -0.3292,0.1633 -0.1171,0.051 -0.2399,0.0918 -0.3669,0.1238 -0.1285,0.0335 -0.2614,0.0496 -0.3957,0.0496 -0.1618,0 -0.3105,-0.0248 -0.4463,-0.0773 -0.1372,-0.051 -0.2571,-0.1326 -0.3582,-0.2477 -0.1011,-0.1137 -0.1805,-0.2623 -0.2383,-0.4459 -0.0592,-0.1837 -0.0881,-0.4066 -0.0881,-0.6675 0,-0.2929 0.0347,-0.5421 0.1026,-0.7476 0.0678,-0.2055 0.1603,-0.3701 0.2787,-0.4955 0.1185,-0.1253 0.2585,-0.2156 0.4189,-0.2725 0.1602,-0.0568 0.335,-0.086 0.5213,-0.086zm-0.4795 0.4227c-0.0303,0.0233 -0.0592,0.0597 -0.0866,0.1093 -0.026,0.0495 -0.0491,0.1093 -0.0693,0.1792 -0.0202,0.07 -0.0362,0.1457 -0.0492,0.2288 -0.0116,0.0816 -0.0187,0.1661 -0.0187,0.2521l1.2103 -0.0524c-0.0145,-0.0962 -0.0347,-0.1939 -0.0607,-0.2915 -0.0274,-0.0991 -0.0635,-0.1865 -0.1112,-0.2623 -0.0463,-0.0773 -0.104,-0.1399 -0.1748,-0.188 -0.0708,-0.0496 -0.1574,-0.0729 -0.2585,-0.0729 -0.0679,0 -0.1344,0.0073 -0.2008,0.0204 -0.0664,0.0146 -0.1256,0.0408 -0.1805,0.0773z"/>
   <path id="_175490704" class="fil2" d="M181.68 66.976c-0.065,-0.0044 -0.1386,-0.0117 -0.221,-0.019 -0.0808,-0.0073 -0.1588,-0.0102 -0.2325,-0.0102 -0.0535,0 -0.0997,0.0059 -0.1372,0.0175 -0.0376,0.0117 -0.0752,0.0292 -0.1097,0.0525 -0.0362,0.0248 -0.0708,0.0524 -0.1041,0.086 -0.0332,0.032 -0.0736,0.0699 -0.1184,0.1136l0 2.2195 -0.5719 0 0 -2.9204 0.478 0 0.0809 0.4576 0.0044 0c0.0318,-0.0379 0.0635,-0.0787 0.0967,-0.1225 0.0347,-0.0437 0.0693,-0.0859 0.104,-0.1253 0.0361,-0.0408 0.0737,-0.0772 0.1126,-0.1122 0.0391,-0.0335 0.0824,-0.0612 0.1272,-0.0801 0.0751,-0.035 0.1617,-0.0569 0.257,-0.0671 0.0968,-0.0087 0.2022,-0.0146 0.3178,-0.0146l-0.0838 0.5247z"/>
   <polygon id="_175490704" class="fil2" points="184.989,69.4359 184.989,65.5595 183.779,66.4688 183.593,66.208 185.204,65.064 185.577,65.064 185.577,69.4359 "/>
  </g>
  <g id="_177148672">
   <path id="_177149488" class="fil3 str2" d="M125.625 64.5l8.6765 0c0.728,0 1.3235,1.1249 1.3235,2.5l0 0c0,1.3751 -0.5955,2.5 -1.3235,2.5l-8.6765 0 0 -5z"/>
   <ellipse id="_177149872" class="fil4 str2" cx="125.625" cy="67" rx="1.25" ry="2.5"/>
  </g>
  <g id="_177148936">
   <path id="_175225512" class="fil3 str2" d="M125.625 94.5l8.6765 0c0.728,0 1.3235,1.1249 1.3235,2.5l0 0c0,1.3751 -0.5955,2.5 -1.3235,2.5l-8.6765 0 0 -5z"/>
   <ellipse id="_175413568" class="fil4 str2" cx="125.625" cy="97" rx="1.25" ry="2.5"/>
  </g>
  <g id="_175225368">
   <path id="_175592952" class="fil3 str2" d="M125.625 124.5l8.6765 0c0.728,0 1.3235,1.1249 1.3235,2.5l0 0c0,1.3751 -0.5955,2.5 -1.3235,2.5l-8.6765 0 0 -5z"/>
   <ellipse id="_177151624" class="fil4 str2" cx="125.625" cy="127" rx="1.25" ry="2.5"/>
  </g>
  <g id="_177148408">
   <path id="_177151720" class="fil3 str2" d="M65.625 94.5l8.6765 0c0.728,0 1.3235,1.1249 1.3235,2.5l0 0c0,1.3751 -0.5955,2.5 -1.3235,2.5l-8.6765 0 0 -5z"/>
   <ellipse id="_175413208" class="fil4 str2" cx="65.625" cy="97" rx="1.25" ry="2.5"/>
  </g>
  <path class="fil5 str3" d="M90.5131 72.6566l18.9738 0c1.1961,0 2.1717,0.9756 2.1717,2.1717l0 4.3434c0,1.1961 -0.9756,2.1717 -2.1717,2.1717l-18.9738 0c-1.196,0 -2.1716,-0.9756 -2.1716,-2.1717l-0.0001 -4.3434c0.0001,-1.1961 0.9757,-2.1717 2.1718,-2.1717z"/>
  <g id="_209853376">
   <polygon id="_209822416" class="fil2" points="93.1254,77.9563 93.1254,74.8451 92.0515,74.8293 92.0852,74.5855 94.673,74.5855 94.6392,74.8192 93.599,74.8451 93.599,77.9563 "/>
   <path id="_209822416" class="fil2" d="M96.125 77.999c-0.3653,0 -0.6458,-0.0989 -0.84,-0.2978 -0.1944,-0.1988 -0.2921,-0.4887 -0.2921,-0.8707 0,-0.1798 0.0244,-0.3427 0.0721,-0.4888 0.0477,-0.1461 0.1198,-0.2697 0.2153,-0.3708 0.0954,-0.1 0.2129,-0.1787 0.3537,-0.2337 0.1408,-0.0539 0.3048,-0.082 0.491,-0.082 0.1838,0 0.3467,0.0258 0.4875,0.0775 0.1409,0.0517 0.2596,0.127 0.3549,0.227 0.0954,0.1 0.1664,0.2224 0.2141,0.3674 0.0477,0.1449 0.0722,0.3101 0.0722,0.4966 0,0.182 -0.0245,0.3461 -0.0722,0.491 -0.0477,0.145 -0.1187,0.2674 -0.2141,0.3697 -0.0953,0.1022 -0.214,0.1798 -0.3549,0.2337 -0.1408,0.0539 -0.3037,0.0809 -0.4875,0.0809zm-0.6446 -1.1719c0,0.1652 0.0128,0.3056 0.0361,0.4213 0.0244,0.1169 0.0616,0.2124 0.1129,0.2865 0.0511,0.0742 0.1163,0.1293 0.1978,0.1641 0.0802,0.036 0.178,0.0528 0.2909,0.0528 0.0931,0 0.1745,-0.0079 0.242,-0.0258 0.0686,-0.018 0.1361,-0.0506 0.2047,-0.0989 0.0791,-0.0573 0.1327,-0.1562 0.1606,-0.2978 0.0267,-0.1415 0.0407,-0.3078 0.0407,-0.4988 0,-0.3203 -0.0511,-0.5551 -0.1512,-0.7023 -0.1012,-0.1483 -0.263,-0.2225 -0.4829,-0.2225 -0.0908,0 -0.1722,0.009 -0.2443,0.0259 -0.071,0.018 -0.1385,0.0483 -0.2025,0.0921 -0.0384,0.027 -0.0698,0.0663 -0.0954,0.1202 -0.0244,0.054 -0.0454,0.1169 -0.0628,0.1877 -0.0175,0.0719 -0.0291,0.1494 -0.0361,0.2359 -0.007,0.0854 -0.0105,0.1719 -0.0105,0.2596z"/>
   <path id="_209822416" class="fil2" d="M98.3916 75.8956c0.0478,-0.0326 0.0967,-0.064 0.1467,-0.0921 0.05,-0.0281 0.1024,-0.054 0.1571,-0.0753 0.0547,-0.0225 0.1117,-0.0404 0.1733,-0.0528 0.0617,-0.0135 0.1292,-0.0202 0.2013,-0.0202 0.1269,0 0.2502,0.0202 0.3677,0.0595 0.1187,0.0393 0.2234,0.1034 0.3142,0.191 0.0908,0.0877 0.164,0.2023 0.2188,0.3439 0.0534,0.1415 0.0814,0.3134 0.0814,0.5146 0,0.1955 -0.0268,0.3696 -0.0803,0.5224 -0.0535,0.1528 -0.1304,0.2809 -0.2315,0.3866 -0.1013,0.1056 -0.2247,0.1865 -0.3689,0.2415 -0.1443,0.0562 -0.3072,0.0843 -0.4887,0.0843 -0.0862,0 -0.1722,-0.0079 -0.256,-0.0247 -0.0838,-0.0169 -0.1617,-0.0349 -0.2351,-0.054 0,0.0113 0.0013,0.0281 0.0024,0.0529 0.0012,0.0235 0.0012,0.0505 0.0012,0.0797 0,0.0304 0,0.0607 0.0011,0.0922 0.0011,0.0325 0.0024,0.0618 0.0024,0.0876l0 1.1618 -0.4608 0.1056 0 -3.7292 0.4061 -0.0989 0.0476 0.2236zm1.1729 0.8955c0,-0.1494 -0.0151,-0.2764 -0.0465,-0.382 -0.0302,-0.1056 -0.0744,-0.1921 -0.1304,-0.2595 -0.0569,-0.0686 -0.1256,-0.118 -0.2047,-0.1484 -0.0803,-0.0314 -0.1675,-0.046 -0.263,-0.046 -0.0954,0 -0.185,0.009 -0.2711,0.0281 -0.0849,0.0179 -0.1687,0.0438 -0.2501,0.0764l0 1.6595c0.0721,0.0113 0.142,0.0191 0.2094,0.0247 0.0675,0.0057 0.1397,0.0079 0.2164,0.0079 0.1094,0 0.2095,-0.0079 0.3014,-0.0258 0.0931,-0.018 0.164,-0.0461 0.2141,-0.0854 0.0245,-0.0225 0.05,-0.0562 0.0756,-0.1023 0.0267,-0.046 0.0512,-0.1045 0.0733,-0.1764 0.0233,-0.0708 0.0419,-0.155 0.0547,-0.2494 0.014,-0.0955 0.0209,-0.2034 0.0209,-0.3214z"/>
   <path id="_209822416" class="fil2" d="M100.736 77.9563l0 -2.2517 0.4608 0 0 2.2517 -0.4608 0zm0.2257 -3.4068l0.3131 0.2989 -0.3131 0.3 -0.3107 -0.3 0.3107 -0.2989z"/>
   <path id="_209822416" class="fil2" d="M103.563 76.09c-0.0431,-0.0202 -0.0944,-0.0404 -0.1537,-0.0629 -0.0593,-0.0214 -0.1198,-0.0405 -0.1827,-0.0573 -0.0627,-0.0169 -0.1233,-0.0304 -0.1838,-0.0416 -0.0605,-0.0101 -0.1117,-0.0157 -0.1547,-0.0157 -0.0547,0 -0.1095,0.0078 -0.1618,0.0258 -0.0535,0.018 -0.107,0.0483 -0.1593,0.0921 -0.0245,0.0225 -0.0489,0.0517 -0.0734,0.0888 -0.0233,0.0371 -0.0442,0.0888 -0.0628,0.1528 -0.0175,0.0652 -0.0326,0.1461 -0.042,0.2427 -0.0104,0.0967 -0.0162,0.2135 -0.0162,0.3517 0,0.1584 0.0128,0.2899 0.0384,0.3955 0.0244,0.1056 0.0629,0.1888 0.114,0.2517 0.0512,0.0629 0.114,0.1067 0.1909,0.1337 0.0756,0.0259 0.164,0.0393 0.264,0.0393 0.1129,0 0.2316,-0.0134 0.3549,-0.0393 0.1222,-0.027 0.234,-0.0618 0.334,-0.1056l0.0605 0.1348c-0.0582,0.0416 -0.1234,0.082 -0.192,0.1214 -0.0698,0.0404 -0.1431,0.0741 -0.2199,0.1045 -0.0779,0.0292 -0.1582,0.0528 -0.242,0.0708 -0.0838,0.0168 -0.1722,0.0258 -0.263,0.0258 -0.1291,0 -0.2513,-0.0191 -0.3642,-0.0596 -0.114,-0.0393 -0.2129,-0.1022 -0.2967,-0.191 -0.0838,-0.0876 -0.1501,-0.2022 -0.1978,-0.3438 -0.0477,-0.1416 -0.0721,-0.3135 -0.0721,-0.5146 0,-0.1933 0.0256,-0.3663 0.0756,-0.5191 0.05,-0.1517 0.1234,-0.282 0.2199,-0.3876 0.0966,-0.1068 0.2164,-0.1877 0.3595,-0.2439 0.1431,-0.0561 0.3084,-0.0842 0.4946,-0.0842 0.1105,0 0.2234,0.0067 0.3374,0.0179 0.1129,0.0124 0.2176,0.027 0.313,0.045l-0.1186 0.3719z"/>
   <path id="_209822416" class="fil2" d="M107.509 77.9563l-0.4363 -1.2348 -1.3428 0.0168 -0.4712 1.218 -0.3467 0 1.3834 -3.3416 0.4096 -0.1146 1.295 3.4562 -0.491 0zm-0.5073 -1.4551l-0.5794 -1.573 -0.6074 1.573 1.1868 0z"/>
  </g>
  <ellipse class="fil1 str4" cx="100" cy="117" rx="11.5" ry="5"/>
  <polygon class="fil2" points="93.5591,117.932 93.5591,114.821 92.522,114.805 92.5546,114.561 95.0535,114.561 95.0209,114.795 94.0164,114.821 94.0164,117.932 "/>
  <path class="fil2" d="M96.4557 117.975c-0.3528,0 -0.6236,-0.0989 -0.8112,-0.2978 -0.1877,-0.1988 -0.282,-0.4887 -0.282,-0.8707 0,-0.1798 0.0235,-0.3427 0.0696,-0.4888 0.0461,-0.1461 0.1157,-0.2697 0.2079,-0.3708 0.0921,-0.1 0.2056,-0.1787 0.3416,-0.2337 0.1359,-0.0539 0.2943,-0.082 0.4741,-0.082 0.1775,0 0.3348,0.0258 0.4708,0.0775 0.136,0.0517 0.2506,0.127 0.3427,0.227 0.0921,0.1 0.1607,0.2224 0.2067,0.3674 0.0461,0.1449 0.0697,0.3101 0.0697,0.4966 0,0.182 -0.0236,0.3461 -0.0697,0.491 -0.046,0.145 -0.1146,0.2674 -0.2067,0.3697 -0.0921,0.1022 -0.2067,0.1798 -0.3427,0.2337 -0.136,0.0539 -0.2933,0.0809 -0.4708,0.0809zm-0.6225 -1.1719c0,0.1652 0.0124,0.3056 0.0349,0.4213 0.0236,0.1169 0.0595,0.2124 0.109,0.2865 0.0494,0.0742 0.1123,0.1293 0.191,0.1641 0.0775,0.036 0.1719,0.0528 0.2809,0.0528 0.0899,0 0.1685,-0.0079 0.2337,-0.0258 0.0663,-0.018 0.1314,-0.0506 0.1977,-0.0989 0.0764,-0.0573 0.1281,-0.1562 0.1551,-0.2978 0.0258,-0.1415 0.0393,-0.3078 0.0393,-0.4988 0,-0.3203 -0.0494,-0.5551 -0.146,-0.7023 -0.0978,-0.1483 -0.254,-0.2225 -0.4663,-0.2225 -0.0877,0 -0.1663,0.009 -0.236,0.0259 -0.0685,0.018 -0.1337,0.0483 -0.1955,0.0921 -0.0371,0.027 -0.0674,0.0663 -0.0921,0.1202 -0.0236,0.054 -0.0439,0.1169 -0.0607,0.1877 -0.0169,0.0719 -0.0281,0.1494 -0.0348,0.2359 -0.0068,0.0854 -0.0102,0.1719 -0.0102,0.2596z"/>
  <path class="fil2" d="M98.6445 115.871c0.0461,-0.0326 0.0933,-0.064 0.1416,-0.0921 0.0483,-0.0281 0.0989,-0.054 0.1517,-0.0753 0.0528,-0.0225 0.1079,-0.0404 0.1674,-0.0528 0.0596,-0.0135 0.1247,-0.0202 0.1944,-0.0202 0.1225,0 0.2416,0.0202 0.355,0.0595 0.1147,0.0393 0.2158,0.1034 0.3034,0.191 0.0877,0.0877 0.1584,0.2023 0.2113,0.3439 0.0516,0.1415 0.0786,0.3134 0.0786,0.5146 0,0.1955 -0.0258,0.3696 -0.0775,0.5224 -0.0517,0.1528 -0.1259,0.2809 -0.2236,0.3866 -0.0978,0.1056 -0.2169,0.1865 -0.3562,0.2415 -0.1393,0.0562 -0.2966,0.0843 -0.4719,0.0843 -0.0832,0 -0.1663,-0.0079 -0.2472,-0.0247 -0.0809,-0.0169 -0.1562,-0.0349 -0.227,-0.054 0,0.0113 0.0012,0.0281 0.0023,0.0529 0.0011,0.0235 0.0011,0.0505 0.0011,0.0797 0,0.0304 0,0.0607 0.0011,0.0922 0.0011,0.0325 0.0023,0.0618 0.0023,0.0876l0 1.1618 -0.445 0.1056 0 -3.7292 0.3922 -0.0989 0.046 0.2236zm1.1326 0.8955c0,-0.1494 -0.0146,-0.2764 -0.0449,-0.382 -0.0292,-0.1056 -0.0719,-0.1921 -0.1259,-0.2595 -0.055,-0.0686 -0.1213,-0.118 -0.1977,-0.1484 -0.0776,-0.0314 -0.1618,-0.046 -0.254,-0.046 -0.0921,0 -0.1786,0.009 -0.2618,0.0281 -0.082,0.0179 -0.1629,0.0438 -0.2415,0.0764l0 1.6595c0.0696,0.0113 0.1371,0.0191 0.2022,0.0247 0.0652,0.0057 0.1349,0.0079 0.209,0.0079 0.1056,0 0.2023,-0.0079 0.291,-0.0258 0.0899,-0.018 0.1584,-0.0461 0.2068,-0.0854 0.0236,-0.0225 0.0483,-0.0562 0.073,-0.1023 0.0258,-0.046 0.0494,-0.1045 0.0708,-0.1764 0.0225,-0.0708 0.0404,-0.155 0.0528,-0.2494 0.0135,-0.0955 0.0202,-0.2034 0.0202,-0.3214z"/>
  <path class="fil2" d="M100.909 117.932l0 -2.2517 0.445 0 0 2.2517 -0.445 0zm0.218 -3.4068l0.3023 0.2989 -0.3023 0.3 -0.3 -0.3 0.3 -0.2989z"/>
  <path class="fil2" d="M103.638 116.066c-0.0416,-0.0202 -0.0911,-0.0404 -0.1484,-0.0629 -0.0573,-0.0214 -0.1157,-0.0405 -0.1764,-0.0573 -0.0606,-0.0169 -0.1191,-0.0304 -0.1775,-0.0416 -0.0584,-0.0101 -0.1079,-0.0157 -0.1494,-0.0157 -0.0528,0 -0.1057,0.0078 -0.1562,0.0258 -0.0517,0.018 -0.1034,0.0483 -0.1539,0.0921 -0.0236,0.0225 -0.0472,0.0517 -0.0708,0.0888 -0.0225,0.0371 -0.0427,0.0888 -0.0607,0.1528 -0.0169,0.0652 -0.0315,0.1461 -0.0405,0.2427 -0.0101,0.0967 -0.0157,0.2135 -0.0157,0.3517 0,0.1584 0.0124,0.2899 0.0371,0.3955 0.0236,0.1056 0.0607,0.1888 0.1101,0.2517 0.0494,0.0629 0.1101,0.1067 0.1843,0.1337 0.073,0.0259 0.1584,0.0393 0.255,0.0393 0.109,0 0.2236,-0.0134 0.3427,-0.0393 0.118,-0.027 0.2259,-0.0618 0.3225,-0.1056l0.0584 0.1348c-0.0562,0.0416 -0.1191,0.082 -0.1854,0.1214 -0.0674,0.0404 -0.1382,0.0741 -0.2123,0.1045 -0.0753,0.0292 -0.1528,0.0528 -0.2337,0.0708 -0.0809,0.0168 -0.1663,0.0258 -0.254,0.0258 -0.1247,0 -0.2427,-0.0191 -0.3517,-0.0596 -0.1101,-0.0393 -0.2056,-0.1022 -0.2865,-0.191 -0.0809,-0.0876 -0.1449,-0.2022 -0.191,-0.3438 -0.0461,-0.1416 -0.0696,-0.3135 -0.0696,-0.5146 0,-0.1933 0.0247,-0.3663 0.073,-0.5191 0.0483,-0.1517 0.1191,-0.282 0.2123,-0.3876 0.0933,-0.1068 0.209,-0.1877 0.3472,-0.2439 0.1382,-0.0561 0.2978,-0.0842 0.4776,-0.0842 0.1067,0 0.2157,0.0067 0.3258,0.0179 0.109,0.0124 0.2101,0.027 0.3023,0.045l-0.1146 0.3719z"/>
  <path class="fil2" d="M107.528 117.02c0,0.1495 -0.0225,0.2821 -0.0674,0.3989 -0.045,0.1157 -0.1146,0.2157 -0.2101,0.2978 -0.0956,0.082 -0.2191,0.1449 -0.3708,0.1876 -0.1517,0.0427 -0.3326,0.0641 -0.5427,0.0641 -0.0708,0 -0.1483,-0.0012 -0.2337,-0.0034 -0.0854,-0.0023 -0.1731,-0.0056 -0.2618,-0.009 -0.0888,-0.0045 -0.1764,-0.0101 -0.2618,-0.0169 -0.0854,-0.0067 -0.163,-0.0134 -0.2337,-0.0202l0 -3.3348c0.1314,-0.0146 0.2719,-0.0259 0.4202,-0.0326 0.1472,-0.0068 0.2955,-0.0101 0.4427,-0.0101 0.1798,0 0.3404,0.0157 0.4831,0.046 0.1427,0.0315 0.2652,0.0787 0.3652,0.1416 0.1011,0.0641 0.1786,0.1472 0.2326,0.2495 0.0539,0.1011 0.0809,0.2224 0.0809,0.3629 0,0.1146 -0.018,0.2157 -0.0551,0.3034 -0.0359,0.0876 -0.0842,0.1629 -0.1438,0.2269 -0.0607,0.0641 -0.1303,0.1157 -0.2079,0.1562 -0.0775,0.0404 -0.1573,0.0708 -0.2382,0.091l0 0.0101c0.136,0.0281 0.254,0.0708 0.3551,0.1259 0.1011,0.0561 0.1843,0.1224 0.2506,0.2 0.0651,0.0764 0.1146,0.1629 0.1471,0.2595 0.0338,0.0966 0.0495,0.1989 0.0495,0.3056zm-0.6315 -1.6258c0,-0.109 -0.0168,-0.2023 -0.0517,-0.2798 -0.0337,-0.0764 -0.082,-0.1393 -0.1438,-0.1888 -0.0629,-0.0494 -0.1393,-0.0853 -0.2292,-0.1089 -0.0899,-0.0225 -0.191,-0.0349 -0.3034,-0.0349 -0.0494,0 -0.0932,0.0011 -0.1281,0.0023 -0.0348,0.0011 -0.0663,0.0022 -0.0932,0.0045 -0.0281,0.0022 -0.0528,0.0045 -0.0742,0.0067 -0.0225,0.0023 -0.0449,0.0045 -0.0696,0.0068l0 1.2247 0.4382 0c0.0898,0 0.1719,-0.009 0.2449,-0.0247 0.0742,-0.0169 0.136,-0.0382 0.1865,-0.0641 0.0236,-0.0135 0.0495,-0.0326 0.0753,-0.0584 0.0258,-0.0247 0.0506,-0.0584 0.073,-0.1011 0.0214,-0.0439 0.0394,-0.0955 0.054,-0.1585 0.0146,-0.0629 0.0213,-0.1382 0.0213,-0.2258zm0.1551 1.6135c0,-0.1337 -0.0225,-0.2483 -0.0674,-0.3427 -0.0461,-0.0944 -0.1057,-0.1708 -0.1821,-0.2304 -0.0752,-0.0595 -0.164,-0.1022 -0.264,-0.128 -0.1011,-0.027 -0.2079,-0.0394 -0.3202,-0.0394l-0.4146 0 0 1.4247c0.0483,0.0045 0.1123,0.0102 0.1932,0.018 0.0798,0.0079 0.1686,0.0113 0.2641,0.0113 0.0483,0 0.0988,-0.0012 0.1516,-0.0045 0.0529,-0.0034 0.1045,-0.009 0.1529,-0.0169 0.0494,-0.0067 0.0955,-0.0168 0.137,-0.027 0.0416,-0.0112 0.0753,-0.0247 0.1023,-0.0404 0.0281,-0.0146 0.0573,-0.036 0.0854,-0.0618 0.0281,-0.027 0.055,-0.064 0.0786,-0.1124 0.0247,-0.0483 0.0438,-0.1089 0.0596,-0.1809 0.0157,-0.0719 0.0236,-0.1629 0.0236,-0.2696z"/>
  <line class="fil0 str5" x1="60" y1="97" x2="65.625" y2= "97" />
  <path class="fil0 str5" d="M125.625 67l-13.966 10 13.966 20m0 -30z"/>
  <path class="fil0 str5" d="M125.625 97l-14.125 20 14.125 10m0 -30z"/>
  <g id="_209824144">
   <path id="_209825200" class="fil2" d="M87.9701 77.0328l0.4991 0.3175 0.0292 3.3152 -0.705 0.0062 -0.0292 -3.3152 0.4991 0.3174 -0.2932 -0.6411zm0 0l0.4943 -0.226 0.0048 0.5435 -0.4991 -0.3175zm-2.869 1.6998l-0.1467 -0.3206 3.0157 -1.3792 0.2932 0.6411 -3.0156 1.3793 -0.1466 -0.3206zm-9.7724 18.4576l-0.0014 -0.379 12.1982 -19.185 0.5954 0.3776 -12.1982 19.185 -0.594 0.0014zm0 0l-0.1219 -0.1894 0.1205 -0.1896 0.0014 0.379zm12.3528 19.1888l-12.3528 -19.1888 0.5926 -0.3804 12.3528 19.1888 -0.5926 0.3804zm0.4474 0.5903l0.2893 -0.642 -0.4967 0.3199 0.0105 -3.3116 0.7042 0.0023 -0.0105 3.3115 -0.4968 0.3199zm0 0l0.4968 -0.3199 -0.0018 0.5429 -0.495 -0.223zm-2.8753 -1.6817l0.1447 -0.321 3.0199 1.3607 -0.2893 0.642 -3.0199 -1.3607 0.1446 -0.321z"/>
  </g>
  <g id="_209825392">
   <path id="_209824888" class="fil2" d="M151.033 67.3528l-15.4084 0 0 -0.7056 15.4084 0 0 0.7056zm0.7395 -0.0568l-0.384 -0.592 0.0001 0.592 -2.7843 -1.8049 0.3838 -0.5921 2.7843 1.805 0.0001 0.592zm0 0l-0.0001 -0.592 0.4565 0.2959 -0.4564 0.2961zm-2.9763 1.5103l-0.192 -0.2959 2.7843 -1.8064 0.384 0.592 -2.7843 1.8063 -0.192 -0.296z"/>
  </g>
  <g id="_209824792">
   <path id="_209826112" class="fil2" d="M151.033 97.3528l-15.4084 0 0 -0.7056 15.4084 0 0 0.7056zm0.7395 -0.0568l-0.384 -0.592 0.0001 0.592 -2.7843 -1.8049 0.3838 -0.5921 2.7843 1.805 0.0001 0.592zm0 0l-0.0001 -0.592 0.4565 0.2959 -0.4564 0.2961zm-2.9763 1.5103l-0.192 -0.2959 2.7843 -1.8064 0.384 0.592 -2.7843 1.8063 -0.192 -0.296z"/>
  </g>
  <g id="_209825608">
   <path id="_209825632" class="fil2" d="M151.033 127.353l-15.4084 0 0 -0.7056 15.4084 0 0 0.7056zm0.7395 -0.0568l-0.384 -0.592 0.0001 0.592 -2.7843 -1.8049 0.3838 -0.5921 2.7843 1.805 0.0001 0.592zm0 0l-0.0001 -0.592 0.4565 0.2959 -0.4564 0.2961zm-2.9763 1.5103l-0.192 -0.2959 2.7843 -1.8064 0.384 0.592 -2.7843 1.8063 -0.192 -0.296z"/>
  </g>
 </g>
</svg>
